<svg xmlns="http://www.w3.org/2000/svg" xmlns:xlink="http://www.w3.org/1999/xlink" width="200" zoomAndPan="magnify" viewBox="0 0 150 37.5" height="50" preserveAspectRatio="xMidYMid meet" version="1.0"><defs><clipPath id="ec9d6f8e9c"><path d="M 8.191406 6.300781 L 34.09375 6.300781 L 34.09375 30.726562 L 8.191406 30.726562 Z M 8.191406 6.300781 " clip-rule="nonzero"/></clipPath><clipPath id="9fc7351cad"><path d="M 35.878906 6.300781 L 61.78125 6.300781 L 61.78125 30.726562 L 35.878906 30.726562 Z M 35.878906 6.300781 " clip-rule="nonzero"/></clipPath><clipPath id="197bb638d1"><path d="M 63.566406 6.300781 L 89.46875 6.300781 L 89.46875 30.726562 L 63.566406 30.726562 Z M 63.566406 6.300781 " clip-rule="nonzero"/></clipPath><clipPath id="441d523122"><path d="M 91.253906 6.300781 L 117.160156 6.300781 L 117.160156 30.726562 L 91.253906 30.726562 Z M 91.253906 6.300781 " clip-rule="nonzero"/></clipPath><clipPath id="da1a6194bc"><path d="M 118.941406 6.300781 L 144.847656 6.300781 L 144.847656 30.726562 L 118.941406 30.726562 Z M 118.941406 6.300781 " clip-rule="nonzero"/></clipPath></defs><g clip-path="url(#ec9d6f8e9c)"><path fill="#fecd4c" d="M 21.144531 6.332031 L 25.148438 14.351562 L 34.097656 15.636719 L 27.621094 21.875 L 29.152344 30.6875 L 21.144531 26.527344 L 13.136719 30.6875 L 14.667969 21.875 L 8.191406 15.636719 L 17.140625 14.351562 Z M 21.144531 6.332031 " fill-opacity="1" fill-rule="nonzero"/></g><g clip-path="url(#9fc7351cad)"><path fill="#fecd4c" d="M 48.832031 6.332031 L 52.835938 14.351562 L 61.789062 15.636719 L 55.308594 21.875 L 56.839844 30.6875 L 48.832031 26.527344 L 40.824219 30.6875 L 42.355469 21.875 L 35.878906 15.636719 L 44.828125 14.351562 Z M 48.832031 6.332031 " fill-opacity="1" fill-rule="nonzero"/></g><g clip-path="url(#197bb638d1)"><path fill="#fecd4c" d="M 76.519531 6.332031 L 80.523438 14.351562 L 89.476562 15.636719 L 82.996094 21.875 L 84.527344 30.6875 L 76.519531 26.527344 L 68.515625 30.6875 L 70.042969 21.875 L 63.566406 15.636719 L 72.515625 14.351562 Z M 76.519531 6.332031 " fill-opacity="1" fill-rule="nonzero"/></g><g clip-path="url(#441d523122)"><path fill="#fecd4c" d="M 104.207031 6.332031 L 108.210938 14.351562 L 117.164062 15.636719 L 110.6875 21.875 L 112.214844 30.6875 L 104.207031 26.527344 L 96.203125 30.6875 L 97.730469 21.875 L 91.253906 15.636719 L 100.207031 14.351562 Z M 104.207031 6.332031 " fill-opacity="1" fill-rule="nonzero"/></g><g clip-path="url(#da1a6194bc)"><path fill="#fecd4c" d="M 131.898438 6.332031 L 135.898438 14.351562 L 144.851562 15.636719 L 138.375 21.875 L 139.902344 30.6875 L 131.898438 26.527344 L 123.890625 30.6875 L 125.417969 21.875 L 118.941406 15.636719 L 127.894531 14.351562 Z M 131.898438 6.332031 " fill-opacity="1" fill-rule="nonzero"/></g></svg>