<svg xmlns="http://www.w3.org/2000/svg" xmlns:xlink="http://www.w3.org/1999/xlink" width="200" zoomAndPan="magnify" viewBox="0 0 150 37.5" height="50" preserveAspectRatio="xMidYMid meet" version="1.0"><defs><clipPath id="d8c4fcb141"><path d="M 8.191406 6.300781 L 34.09375 6.300781 L 34.09375 30.726562 L 8.191406 30.726562 Z M 8.191406 6.300781 " clip-rule="nonzero"/></clipPath><clipPath id="bc7395c62c"><path d="M 35.199219 6.300781 L 61.101562 6.300781 L 61.101562 30.726562 L 35.199219 30.726562 Z M 35.199219 6.300781 " clip-rule="nonzero"/></clipPath><clipPath id="b36535de61"><path d="M 62.207031 6.300781 L 88.113281 6.300781 L 88.113281 30.726562 L 62.207031 30.726562 Z M 62.207031 6.300781 " clip-rule="nonzero"/></clipPath><clipPath id="6943d8dc5b"><path d="M 89.214844 6.300781 L 115.121094 6.300781 L 115.121094 30.726562 L 89.214844 30.726562 Z M 89.214844 6.300781 " clip-rule="nonzero"/></clipPath><clipPath id="c00462b475"><path d="M 116.222656 6.300781 L 142.128906 6.300781 L 142.128906 30.726562 L 116.222656 30.726562 Z M 116.222656 6.300781 " clip-rule="nonzero"/></clipPath></defs><g clip-path="url(#d8c4fcb141)"><path fill="#fecd4c" d="M 21.144531 6.332031 L 25.148438 14.351562 L 34.097656 15.636719 L 27.621094 21.875 L 29.152344 30.6875 L 21.144531 26.527344 L 13.136719 30.6875 L 14.667969 21.875 L 8.191406 15.636719 L 17.140625 14.351562 Z M 21.144531 6.332031 " fill-opacity="1" fill-rule="nonzero"/></g><g clip-path="url(#bc7395c62c)"><path fill="#fecd4c" d="M 48.152344 6.332031 L 52.15625 14.351562 L 61.109375 15.636719 L 54.628906 21.875 L 56.160156 30.6875 L 48.152344 26.527344 L 40.148438 30.6875 L 41.675781 21.875 L 35.199219 15.636719 L 44.148438 14.351562 Z M 48.152344 6.332031 " fill-opacity="1" fill-rule="nonzero"/></g><g clip-path="url(#b36535de61)"><path fill="#fecd4c" d="M 75.160156 6.332031 L 79.164062 14.351562 L 88.117188 15.636719 L 81.640625 21.875 L 83.167969 30.6875 L 75.160156 26.527344 L 67.15625 30.6875 L 68.683594 21.875 L 62.207031 15.636719 L 71.160156 14.351562 Z M 75.160156 6.332031 " fill-opacity="1" fill-rule="nonzero"/></g><g clip-path="url(#6943d8dc5b)"><path fill="#fecd4c" d="M 102.171875 6.332031 L 106.171875 14.351562 L 115.125 15.636719 L 108.648438 21.875 L 110.175781 30.6875 L 102.171875 26.527344 L 94.164062 30.6875 L 95.691406 21.875 L 89.214844 15.636719 L 98.167969 14.351562 Z M 102.171875 6.332031 " fill-opacity="1" fill-rule="nonzero"/></g><g clip-path="url(#c00462b475)"><path fill="#fecd4c" d="M 129.179688 6.332031 L 133.183594 14.351562 L 142.132812 15.636719 L 135.65625 21.875 L 137.1875 30.6875 L 129.179688 26.527344 L 121.171875 30.6875 L 122.703125 21.875 L 116.222656 15.636719 L 125.175781 14.351562 Z M 129.179688 6.332031 " fill-opacity="1" fill-rule="nonzero"/></g></svg>