<svg xmlns="http://www.w3.org/2000/svg" xmlns:xlink="http://www.w3.org/1999/xlink" width="500" zoomAndPan="magnify" viewBox="0 0 375 374.999991" height="500" preserveAspectRatio="xMidYMid meet" version="1.0"><defs><clipPath id="f388736ff2"><path d="M 91 174 L 284 174 L 284 312.34375 L 91 312.34375 Z M 91 174 " clip-rule="nonzero"/></clipPath><clipPath id="7b55ec692c"><path d="M 57.539062 64 L 317.511719 64 L 317.511719 179 L 57.539062 179 Z M 57.539062 64 " clip-rule="nonzero"/></clipPath><clipPath id="8621b9b38b"><path d="M 170.855469 109 L 256 109 L 256 152 L 170.855469 152 Z M 170.855469 109 " clip-rule="nonzero"/></clipPath><clipPath id="ce10313980"><path d="M 223 167 L 253 167 L 253 198.382812 L 223 198.382812 Z M 223 167 " clip-rule="nonzero"/></clipPath><clipPath id="d541ee2087"><path d="M 275 115 L 305.90625 115 L 305.90625 145 L 275 145 Z M 275 115 " clip-rule="nonzero"/></clipPath><clipPath id="b0a07cc686"><path d="M 223 62.503906 L 253 62.503906 L 253 93 L 223 93 Z M 223 62.503906 " clip-rule="nonzero"/></clipPath></defs><g clip-path="url(#f388736ff2)"><path fill="#231f20" d="M 271.601562 294.265625 C 271.601562 297.589844 268.894531 300.242188 265.621094 300.242188 L 223.609375 300.242188 C 220.28125 300.242188 217.628906 297.539062 217.628906 294.265625 L 217.628906 232.023438 C 217.628906 222.101562 209.570312 214.050781 199.640625 214.050781 L 175.617188 214.050781 C 165.6875 214.050781 157.628906 222.101562 157.628906 232.023438 L 157.628906 294.265625 C 157.628906 297.589844 154.925781 300.238281 151.648438 300.238281 L 109.480469 300.238281 C 106.15625 300.238281 103.503906 297.539062 103.503906 294.265625 L 103.503906 174.304688 L 91.492188 174.304688 L 91.492188 294.265625 C 91.492188 304.1875 99.550781 312.242188 109.480469 312.242188 L 151.492188 312.242188 C 161.425781 312.242188 169.484375 304.1875 169.484375 294.265625 L 169.484375 232.023438 C 169.484375 228.699219 172.1875 226.050781 175.460938 226.050781 L 199.484375 226.050781 C 202.8125 226.050781 205.464844 228.753906 205.464844 232.023438 L 205.464844 294.265625 C 205.464844 304.1875 213.523438 312.242188 223.453125 312.242188 L 265.464844 312.242188 C 275.394531 312.242188 283.453125 304.1875 283.453125 294.265625 L 283.453125 174.304688 L 271.445312 174.304688 Z M 271.601562 294.265625 " fill-opacity="1" fill-rule="nonzero"/></g><g clip-path="url(#7b55ec692c)"><path fill="#231f20" d="M 199.222656 68.421875 C 192.414062 62.605469 182.585938 62.605469 175.773438 68.421875 L 57.539062 169.734375 L 65.339844 178.824219 L 183.625 77.515625 C 185.914062 75.59375 189.1875 75.59375 191.425781 77.515625 L 309.710938 178.824219 L 317.511719 169.734375 Z M 199.222656 68.421875 " fill-opacity="1" fill-rule="nonzero"/></g><g clip-path="url(#8621b9b38b)"><path fill="#4380ff" d="M 255.523438 141.851562 C 251.84375 147.449219 245.511719 151.121094 238.339844 151.121094 C 232.628906 151.121094 227.433594 148.78125 223.699219 144.949219 L 177.125 144.949219 C 173.6875 144.949219 170.871094 142.152344 170.871094 138.671875 L 170.871094 122.203125 C 170.871094 118.722656 173.6875 115.894531 177.125 115.894531 L 223.699219 115.894531 C 227.433594 112.117188 232.628906 109.78125 238.339844 109.78125 C 245.539062 109.78125 251.84375 113.449219 255.523438 119.050781 L 237.527344 119.050781 L 234.253906 124.757812 L 230.976562 130.464844 L 234.253906 136.171875 L 237.527344 141.878906 L 255.523438 141.878906 Z M 255.523438 141.851562 " fill-opacity="1" fill-rule="nonzero"/></g><g clip-path="url(#ce10313980)"><path fill="#4380ff" d="M 246.539062 198.382812 L 230.167969 198.382812 C 226.703125 198.382812 223.886719 195.558594 223.886719 192.078125 L 223.886719 167.945312 C 224.835938 168.324219 225.808594 168.648438 226.785156 168.976562 L 228.433594 178.734375 L 248.273438 178.734375 L 249.921875 168.976562 C 250.898438 168.675781 251.871094 168.324219 252.816406 167.945312 L 252.816406 192.078125 C 252.816406 195.558594 250.003906 198.382812 246.539062 198.382812 Z M 246.539062 198.382812 " fill-opacity="1" fill-rule="nonzero"/></g><g clip-path="url(#d541ee2087)"><path fill="#4380ff" d="M 305.886719 122.203125 L 305.886719 138.671875 C 305.886719 142.152344 303.074219 144.976562 299.609375 144.976562 L 275.738281 144.976562 C 276.117188 144 276.417969 143.046875 276.714844 142.070312 L 286.457031 140.355469 L 286.457031 120.488281 L 276.714844 118.777344 C 276.417969 117.796875 276.117188 116.847656 275.738281 115.867188 L 299.609375 115.867188 C 303.074219 115.894531 305.886719 118.722656 305.886719 122.203125 Z M 305.886719 122.203125 " fill-opacity="1" fill-rule="nonzero"/></g><g clip-path="url(#b0a07cc686)"><path fill="#4380ff" d="M 230.167969 62.488281 L 246.566406 62.488281 C 250.003906 62.488281 252.816406 65.316406 252.816406 68.796875 L 252.816406 92.929688 C 251.871094 92.550781 250.898438 92.222656 249.921875 91.898438 L 248.273438 82.140625 L 228.433594 82.140625 L 226.785156 91.898438 C 225.808594 92.195312 224.835938 92.550781 223.886719 92.929688 L 223.886719 68.796875 C 223.886719 65.316406 226.703125 62.488281 230.167969 62.488281 Z M 230.167969 62.488281 " fill-opacity="1" fill-rule="nonzero"/></g><path fill="#0c103a" d="M 274.847656 139.949219 C 273.953125 143.402344 272.601562 146.609375 270.867188 149.597656 L 276.253906 157.316406 L 271.519531 162.074219 L 269.867188 163.730469 L 265.105469 168.488281 L 257.472656 163.078125 C 254.496094 164.816406 251.277344 166.175781 247.839844 167.046875 L 246.269531 176.316406 L 230.492188 176.316406 L 228.921875 167.046875 C 225.484375 166.175781 222.265625 164.816406 219.289062 163.078125 L 211.628906 168.488281 L 206.894531 163.730469 L 205.242188 162.074219 L 200.507812 157.316406 L 205.890625 149.597656 L 220.398438 149.597656 C 225.105469 154.054688 231.410156 156.773438 238.339844 156.773438 C 252.816406 156.773438 264.5625 144.976562 264.5625 130.4375 C 264.5625 115.894531 252.816406 104.101562 238.339844 104.101562 C 231.410156 104.101562 225.105469 106.820312 220.398438 111.277344 L 205.863281 111.277344 L 200.480469 103.558594 L 205.214844 98.800781 L 206.867188 97.144531 L 211.601562 92.386719 L 219.234375 97.796875 C 222.210938 96.054688 225.429688 94.695312 228.867188 93.828125 L 230.4375 84.558594 L 246.214844 84.558594 L 247.785156 93.828125 C 251.222656 94.695312 254.441406 96.054688 257.417969 97.820312 L 265.050781 92.386719 L 269.785156 97.144531 L 271.4375 98.800781 L 276.226562 103.558594 L 270.816406 111.277344 C 272.546875 114.265625 273.898438 117.472656 274.792969 120.925781 L 284.019531 122.5 L 284.019531 138.371094 Z M 274.847656 139.949219 " fill-opacity="1" fill-rule="nonzero"/></svg>