<svg xmlns="http://www.w3.org/2000/svg" xmlns:xlink="http://www.w3.org/1999/xlink" width="500" zoomAndPan="magnify" viewBox="0 0 375 374.999991" height="500" preserveAspectRatio="xMidYMid meet" version="1.0"><defs><g/><clipPath id="8d2bc19de2"><path d="M 157 53 L 161 53 L 161 56 L 157 56 Z M 157 53 " clip-rule="nonzero"/></clipPath><clipPath id="44906e6491"><path d="M 105.796875 57.574219 L 105.796875 128.207031 C 105.796875 133.589844 110.164062 137.957031 115.546875 137.957031 L 170.96875 137.957031 C 176.355469 137.957031 180.71875 133.589844 180.71875 128.207031 L 180.71875 57.574219 C 180.71875 52.1875 176.355469 47.824219 170.96875 47.824219 L 115.546875 47.824219 C 110.164062 47.824219 105.796875 52.1875 105.796875 57.574219 Z M 105.796875 57.574219 " clip-rule="nonzero"/></clipPath><clipPath id="436b5fb41c"><path d="M 116.449219 48.722656 L 170.070312 48.722656 C 175.457031 48.722656 179.820312 53.089844 179.820312 58.472656 L 179.820312 127.304688 C 179.820312 132.691406 175.457031 137.054688 170.070312 137.054688 L 116.449219 137.054688 C 111.0625 137.054688 106.699219 132.691406 106.699219 127.304688 L 106.699219 58.472656 C 106.699219 53.089844 111.0625 48.722656 116.449219 48.722656 Z M 116.449219 48.722656 " clip-rule="nonzero"/></clipPath><clipPath id="0ad8635f44"><path d="M 163 53 L 166 53 L 166 56 L 163 56 Z M 163 53 " clip-rule="nonzero"/></clipPath><clipPath id="684244acdb"><path d="M 105.796875 57.574219 L 105.796875 128.207031 C 105.796875 133.589844 110.164062 137.957031 115.546875 137.957031 L 170.96875 137.957031 C 176.355469 137.957031 180.71875 133.589844 180.71875 128.207031 L 180.71875 57.574219 C 180.71875 52.1875 176.355469 47.824219 170.96875 47.824219 L 115.546875 47.824219 C 110.164062 47.824219 105.796875 52.1875 105.796875 57.574219 Z M 105.796875 57.574219 " clip-rule="nonzero"/></clipPath><clipPath id="b69bc7ac3f"><path d="M 116.449219 48.722656 L 170.070312 48.722656 C 175.457031 48.722656 179.820312 53.089844 179.820312 58.472656 L 179.820312 127.304688 C 179.820312 132.691406 175.457031 137.054688 170.070312 137.054688 L 116.449219 137.054688 C 111.0625 137.054688 106.699219 132.691406 106.699219 127.304688 L 106.699219 58.472656 C 106.699219 53.089844 111.0625 48.722656 116.449219 48.722656 Z M 116.449219 48.722656 " clip-rule="nonzero"/></clipPath><clipPath id="740facb2d1"><path d="M 157 57 L 161 57 L 161 60 L 157 60 Z M 157 57 " clip-rule="nonzero"/></clipPath><clipPath id="1e81554f6d"><path d="M 105.796875 57.574219 L 105.796875 128.207031 C 105.796875 133.589844 110.164062 137.957031 115.546875 137.957031 L 170.96875 137.957031 C 176.355469 137.957031 180.71875 133.589844 180.71875 128.207031 L 180.71875 57.574219 C 180.71875 52.1875 176.355469 47.824219 170.96875 47.824219 L 115.546875 47.824219 C 110.164062 47.824219 105.796875 52.1875 105.796875 57.574219 Z M 105.796875 57.574219 " clip-rule="nonzero"/></clipPath><clipPath id="398a7069d4"><path d="M 116.449219 48.722656 L 170.070312 48.722656 C 175.457031 48.722656 179.820312 53.089844 179.820312 58.472656 L 179.820312 127.304688 C 179.820312 132.691406 175.457031 137.054688 170.070312 137.054688 L 116.449219 137.054688 C 111.0625 137.054688 106.699219 132.691406 106.699219 127.304688 L 106.699219 58.472656 C 106.699219 53.089844 111.0625 48.722656 116.449219 48.722656 Z M 116.449219 48.722656 " clip-rule="nonzero"/></clipPath><clipPath id="bf33f7e593"><path d="M 163 57 L 166 57 L 166 60 L 163 60 Z M 163 57 " clip-rule="nonzero"/></clipPath><clipPath id="8d5b6ef743"><path d="M 105.796875 57.574219 L 105.796875 128.207031 C 105.796875 133.589844 110.164062 137.957031 115.546875 137.957031 L 170.96875 137.957031 C 176.355469 137.957031 180.71875 133.589844 180.71875 128.207031 L 180.71875 57.574219 C 180.71875 52.1875 176.355469 47.824219 170.96875 47.824219 L 115.546875 47.824219 C 110.164062 47.824219 105.796875 52.1875 105.796875 57.574219 Z M 105.796875 57.574219 " clip-rule="nonzero"/></clipPath><clipPath id="a2d5c6792c"><path d="M 116.449219 48.722656 L 170.070312 48.722656 C 175.457031 48.722656 179.820312 53.089844 179.820312 58.472656 L 179.820312 127.304688 C 179.820312 132.691406 175.457031 137.054688 170.070312 137.054688 L 116.449219 137.054688 C 111.0625 137.054688 106.699219 132.691406 106.699219 127.304688 L 106.699219 58.472656 C 106.699219 53.089844 111.0625 48.722656 116.449219 48.722656 Z M 116.449219 48.722656 " clip-rule="nonzero"/></clipPath><clipPath id="ecfd8eb386"><path d="M 168 53 L 172 53 L 172 56 L 168 56 Z M 168 53 " clip-rule="nonzero"/></clipPath><clipPath id="cdce4a0248"><path d="M 105.796875 57.574219 L 105.796875 128.207031 C 105.796875 133.589844 110.164062 137.957031 115.546875 137.957031 L 170.96875 137.957031 C 176.355469 137.957031 180.71875 133.589844 180.71875 128.207031 L 180.71875 57.574219 C 180.71875 52.1875 176.355469 47.824219 170.96875 47.824219 L 115.546875 47.824219 C 110.164062 47.824219 105.796875 52.1875 105.796875 57.574219 Z M 105.796875 57.574219 " clip-rule="nonzero"/></clipPath><clipPath id="03fd77d195"><path d="M 116.449219 48.722656 L 170.070312 48.722656 C 175.457031 48.722656 179.820312 53.089844 179.820312 58.472656 L 179.820312 127.304688 C 179.820312 132.691406 175.457031 137.054688 170.070312 137.054688 L 116.449219 137.054688 C 111.0625 137.054688 106.699219 132.691406 106.699219 127.304688 L 106.699219 58.472656 C 106.699219 53.089844 111.0625 48.722656 116.449219 48.722656 Z M 116.449219 48.722656 " clip-rule="nonzero"/></clipPath><clipPath id="e496e99327"><path d="M 168 57 L 172 57 L 172 60 L 168 60 Z M 168 57 " clip-rule="nonzero"/></clipPath><clipPath id="653625a35d"><path d="M 105.796875 57.574219 L 105.796875 128.207031 C 105.796875 133.589844 110.164062 137.957031 115.546875 137.957031 L 170.96875 137.957031 C 176.355469 137.957031 180.71875 133.589844 180.71875 128.207031 L 180.71875 57.574219 C 180.71875 52.1875 176.355469 47.824219 170.96875 47.824219 L 115.546875 47.824219 C 110.164062 47.824219 105.796875 52.1875 105.796875 57.574219 Z M 105.796875 57.574219 " clip-rule="nonzero"/></clipPath><clipPath id="f27c3034f8"><path d="M 116.449219 48.722656 L 170.070312 48.722656 C 175.457031 48.722656 179.820312 53.089844 179.820312 58.472656 L 179.820312 127.304688 C 179.820312 132.691406 175.457031 137.054688 170.070312 137.054688 L 116.449219 137.054688 C 111.0625 137.054688 106.699219 132.691406 106.699219 127.304688 L 106.699219 58.472656 C 106.699219 53.089844 111.0625 48.722656 116.449219 48.722656 Z M 116.449219 48.722656 " clip-rule="nonzero"/></clipPath><clipPath id="ec95ba514e"><path d="M 106.546875 48.574219 L 180 48.574219 L 180 137.074219 L 106.546875 137.074219 Z M 106.546875 48.574219 " clip-rule="nonzero"/></clipPath><clipPath id="43faa4ce09"><path d="M 105.796875 57.574219 L 105.796875 128.207031 C 105.796875 133.589844 110.164062 137.957031 115.546875 137.957031 L 170.96875 137.957031 C 176.355469 137.957031 180.71875 133.589844 180.71875 128.207031 L 180.71875 57.574219 C 180.71875 52.1875 176.355469 47.824219 170.96875 47.824219 L 115.546875 47.824219 C 110.164062 47.824219 105.796875 52.1875 105.796875 57.574219 Z M 105.796875 57.574219 " clip-rule="nonzero"/></clipPath><clipPath id="67d5f96c8c"><path d="M 116.449219 48.722656 L 170.070312 48.722656 C 175.457031 48.722656 179.820312 53.089844 179.820312 58.472656 L 179.820312 127.304688 C 179.820312 132.691406 175.457031 137.054688 170.070312 137.054688 L 116.449219 137.054688 C 111.0625 137.054688 106.699219 132.691406 106.699219 127.304688 L 106.699219 58.472656 C 106.699219 53.089844 111.0625 48.722656 116.449219 48.722656 Z M 116.449219 48.722656 " clip-rule="nonzero"/></clipPath><clipPath id="9d95468e06"><path d="M 106.546875 63 L 180 63 L 180 66 L 106.546875 66 Z M 106.546875 63 " clip-rule="nonzero"/></clipPath><clipPath id="2c1dd7692f"><path d="M 105.796875 57.574219 L 105.796875 128.207031 C 105.796875 133.589844 110.164062 137.957031 115.546875 137.957031 L 170.96875 137.957031 C 176.355469 137.957031 180.71875 133.589844 180.71875 128.207031 L 180.71875 57.574219 C 180.71875 52.1875 176.355469 47.824219 170.96875 47.824219 L 115.546875 47.824219 C 110.164062 47.824219 105.796875 52.1875 105.796875 57.574219 Z M 105.796875 57.574219 " clip-rule="nonzero"/></clipPath><clipPath id="a9c85200f4"><path d="M 116.449219 48.722656 L 170.070312 48.722656 C 175.457031 48.722656 179.820312 53.089844 179.820312 58.472656 L 179.820312 127.304688 C 179.820312 132.691406 175.457031 137.054688 170.070312 137.054688 L 116.449219 137.054688 C 111.0625 137.054688 106.699219 132.691406 106.699219 127.304688 L 106.699219 58.472656 C 106.699219 53.089844 111.0625 48.722656 116.449219 48.722656 Z M 116.449219 48.722656 " clip-rule="nonzero"/></clipPath><clipPath id="6e7e1f710c"><path d="M 115 72 L 172 72 L 172 129 L 115 129 Z M 115 72 " clip-rule="nonzero"/></clipPath><clipPath id="97854e9e89"><path d="M 105.796875 57.574219 L 105.796875 128.207031 C 105.796875 133.589844 110.164062 137.957031 115.546875 137.957031 L 170.96875 137.957031 C 176.355469 137.957031 180.71875 133.589844 180.71875 128.207031 L 180.71875 57.574219 C 180.71875 52.1875 176.355469 47.824219 170.96875 47.824219 L 115.546875 47.824219 C 110.164062 47.824219 105.796875 52.1875 105.796875 57.574219 Z M 105.796875 57.574219 " clip-rule="nonzero"/></clipPath><clipPath id="eafa03d03b"><path d="M 116.449219 48.722656 L 170.070312 48.722656 C 175.457031 48.722656 179.820312 53.089844 179.820312 58.472656 L 179.820312 127.304688 C 179.820312 132.691406 175.457031 137.054688 170.070312 137.054688 L 116.449219 137.054688 C 111.0625 137.054688 106.699219 132.691406 106.699219 127.304688 L 106.699219 58.472656 C 106.699219 53.089844 111.0625 48.722656 116.449219 48.722656 Z M 116.449219 48.722656 " clip-rule="nonzero"/></clipPath><clipPath id="f6e79de683"><path d="M 122 79 L 165 79 L 165 122 L 122 122 Z M 122 79 " clip-rule="nonzero"/></clipPath><clipPath id="750d32e9d2"><path d="M 105.796875 57.574219 L 105.796875 128.207031 C 105.796875 133.589844 110.164062 137.957031 115.546875 137.957031 L 170.96875 137.957031 C 176.355469 137.957031 180.71875 133.589844 180.71875 128.207031 L 180.71875 57.574219 C 180.71875 52.1875 176.355469 47.824219 170.96875 47.824219 L 115.546875 47.824219 C 110.164062 47.824219 105.796875 52.1875 105.796875 57.574219 Z M 105.796875 57.574219 " clip-rule="nonzero"/></clipPath><clipPath id="618e073ef6"><path d="M 116.449219 48.722656 L 170.070312 48.722656 C 175.457031 48.722656 179.820312 53.089844 179.820312 58.472656 L 179.820312 127.304688 C 179.820312 132.691406 175.457031 137.054688 170.070312 137.054688 L 116.449219 137.054688 C 111.0625 137.054688 106.699219 132.691406 106.699219 127.304688 L 106.699219 58.472656 C 106.699219 53.089844 111.0625 48.722656 116.449219 48.722656 Z M 116.449219 48.722656 " clip-rule="nonzero"/></clipPath><clipPath id="ee879ffbcb"><path d="M 142 84 L 159 84 L 159 102 L 142 102 Z M 142 84 " clip-rule="nonzero"/></clipPath><clipPath id="74261d6b9d"><path d="M 105.796875 57.574219 L 105.796875 128.207031 C 105.796875 133.589844 110.164062 137.957031 115.546875 137.957031 L 170.96875 137.957031 C 176.355469 137.957031 180.71875 133.589844 180.71875 128.207031 L 180.71875 57.574219 C 180.71875 52.1875 176.355469 47.824219 170.96875 47.824219 L 115.546875 47.824219 C 110.164062 47.824219 105.796875 52.1875 105.796875 57.574219 Z M 105.796875 57.574219 " clip-rule="nonzero"/></clipPath><clipPath id="cdac175bbd"><path d="M 116.449219 48.722656 L 170.070312 48.722656 C 175.457031 48.722656 179.820312 53.089844 179.820312 58.472656 L 179.820312 127.304688 C 179.820312 132.691406 175.457031 137.054688 170.070312 137.054688 L 116.449219 137.054688 C 111.0625 137.054688 106.699219 132.691406 106.699219 127.304688 L 106.699219 58.472656 C 106.699219 53.089844 111.0625 48.722656 116.449219 48.722656 Z M 116.449219 48.722656 " clip-rule="nonzero"/></clipPath><clipPath id="6c3e525e2a"><path d="M 115 54 L 137 54 L 137 60 L 115 60 Z M 115 54 " clip-rule="nonzero"/></clipPath><clipPath id="12da0ff1a4"><path d="M 105.796875 57.574219 L 105.796875 128.207031 C 105.796875 133.589844 110.164062 137.957031 115.546875 137.957031 L 170.96875 137.957031 C 176.355469 137.957031 180.71875 133.589844 180.71875 128.207031 L 180.71875 57.574219 C 180.71875 52.1875 176.355469 47.824219 170.96875 47.824219 L 115.546875 47.824219 C 110.164062 47.824219 105.796875 52.1875 105.796875 57.574219 Z M 105.796875 57.574219 " clip-rule="nonzero"/></clipPath><clipPath id="5599cf380d"><path d="M 116.449219 48.722656 L 170.070312 48.722656 C 175.457031 48.722656 179.820312 53.089844 179.820312 58.472656 L 179.820312 127.304688 C 179.820312 132.691406 175.457031 137.054688 170.070312 137.054688 L 116.449219 137.054688 C 111.0625 137.054688 106.699219 132.691406 106.699219 127.304688 L 106.699219 58.472656 C 106.699219 53.089844 111.0625 48.722656 116.449219 48.722656 Z M 116.449219 48.722656 " clip-rule="nonzero"/></clipPath><clipPath id="c2070e6f81"><path d="M 105.796875 47.824219 L 180.792969 47.824219 L 180.792969 137.824219 L 105.796875 137.824219 Z M 105.796875 47.824219 " clip-rule="nonzero"/></clipPath><clipPath id="7c9720340c"><path d="M 105.796875 57.574219 L 105.796875 128.207031 C 105.796875 133.589844 110.164062 137.957031 115.546875 137.957031 L 170.96875 137.957031 C 176.355469 137.957031 180.71875 133.589844 180.71875 128.207031 L 180.71875 57.574219 C 180.71875 52.1875 176.355469 47.824219 170.96875 47.824219 L 115.546875 47.824219 C 110.164062 47.824219 105.796875 52.1875 105.796875 57.574219 Z M 105.796875 57.574219 " clip-rule="nonzero"/></clipPath><clipPath id="034b268f5c"><path d="M 105.796875 57.574219 L 105.796875 128.203125 C 105.796875 133.585938 110.164062 137.953125 115.546875 137.953125 L 170.964844 137.953125 C 176.351562 137.953125 180.714844 133.585938 180.714844 128.203125 L 180.714844 57.574219 C 180.714844 52.1875 176.351562 47.824219 170.964844 47.824219 L 115.546875 47.824219 C 110.164062 47.824219 105.796875 52.1875 105.796875 57.574219 Z M 105.796875 57.574219 " clip-rule="nonzero"/></clipPath><clipPath id="83c9cfc2fa"><path d="M 207.675781 48.574219 L 297.675781 48.574219 L 297.675781 137.074219 L 207.675781 137.074219 Z M 207.675781 48.574219 " clip-rule="nonzero"/></clipPath><clipPath id="d0c9497bd1"><path d="M 206.925781 57.574219 L 206.925781 128.207031 C 206.925781 133.589844 211.289062 137.957031 216.675781 137.957031 L 288.796875 137.957031 C 294.179688 137.957031 298.546875 133.589844 298.546875 128.207031 L 298.546875 57.574219 C 298.546875 52.1875 294.179688 47.824219 288.796875 47.824219 L 216.675781 47.824219 C 211.289062 47.824219 206.925781 52.1875 206.925781 57.574219 Z M 206.925781 57.574219 " clip-rule="nonzero"/></clipPath><clipPath id="841a0b9e13"><path d="M 217.574219 48.722656 L 287.898438 48.722656 C 293.28125 48.722656 297.648438 53.089844 297.648438 58.472656 L 297.648438 127.304688 C 297.648438 132.691406 293.28125 137.054688 287.898438 137.054688 L 217.574219 137.054688 C 212.191406 137.054688 207.824219 132.691406 207.824219 127.304688 L 207.824219 58.472656 C 207.824219 53.089844 212.191406 48.722656 217.574219 48.722656 Z M 217.574219 48.722656 " clip-rule="nonzero"/></clipPath><clipPath id="21b4d23597"><path d="M 214 79 L 291 79 L 291 131 L 214 131 Z M 214 79 " clip-rule="nonzero"/></clipPath><clipPath id="fe17e6ad44"><path d="M 206.925781 57.574219 L 206.925781 128.207031 C 206.925781 133.589844 211.289062 137.957031 216.675781 137.957031 L 288.796875 137.957031 C 294.179688 137.957031 298.546875 133.589844 298.546875 128.207031 L 298.546875 57.574219 C 298.546875 52.1875 294.179688 47.824219 288.796875 47.824219 L 216.675781 47.824219 C 211.289062 47.824219 206.925781 52.1875 206.925781 57.574219 Z M 206.925781 57.574219 " clip-rule="nonzero"/></clipPath><clipPath id="f726f81ed4"><path d="M 217.574219 48.722656 L 287.898438 48.722656 C 293.28125 48.722656 297.648438 53.089844 297.648438 58.472656 L 297.648438 127.304688 C 297.648438 132.691406 293.28125 137.054688 287.898438 137.054688 L 217.574219 137.054688 C 212.191406 137.054688 207.824219 132.691406 207.824219 127.304688 L 207.824219 58.472656 C 207.824219 53.089844 212.191406 48.722656 217.574219 48.722656 Z M 217.574219 48.722656 " clip-rule="nonzero"/></clipPath><clipPath id="de0a6c34a2"><path d="M 235 85 L 270 85 L 270 89 L 235 89 Z M 235 85 " clip-rule="nonzero"/></clipPath><clipPath id="10a253a310"><path d="M 206.925781 57.574219 L 206.925781 128.207031 C 206.925781 133.589844 211.289062 137.957031 216.675781 137.957031 L 288.796875 137.957031 C 294.179688 137.957031 298.546875 133.589844 298.546875 128.207031 L 298.546875 57.574219 C 298.546875 52.1875 294.179688 47.824219 288.796875 47.824219 L 216.675781 47.824219 C 211.289062 47.824219 206.925781 52.1875 206.925781 57.574219 Z M 206.925781 57.574219 " clip-rule="nonzero"/></clipPath><clipPath id="c18833ec6c"><path d="M 217.574219 48.722656 L 287.898438 48.722656 C 293.28125 48.722656 297.648438 53.089844 297.648438 58.472656 L 297.648438 127.304688 C 297.648438 132.691406 293.28125 137.054688 287.898438 137.054688 L 217.574219 137.054688 C 212.191406 137.054688 207.824219 132.691406 207.824219 127.304688 L 207.824219 58.472656 C 207.824219 53.089844 212.191406 48.722656 217.574219 48.722656 Z M 217.574219 48.722656 " clip-rule="nonzero"/></clipPath><clipPath id="d22ad4791b"><path d="M 215 53 L 230 53 L 230 69 L 215 69 Z M 215 53 " clip-rule="nonzero"/></clipPath><clipPath id="928890e055"><path d="M 206.925781 57.574219 L 206.925781 128.207031 C 206.925781 133.589844 211.289062 137.957031 216.675781 137.957031 L 288.796875 137.957031 C 294.179688 137.957031 298.546875 133.589844 298.546875 128.207031 L 298.546875 57.574219 C 298.546875 52.1875 294.179688 47.824219 288.796875 47.824219 L 216.675781 47.824219 C 211.289062 47.824219 206.925781 52.1875 206.925781 57.574219 Z M 206.925781 57.574219 " clip-rule="nonzero"/></clipPath><clipPath id="2f77159eb9"><path d="M 217.574219 48.722656 L 287.898438 48.722656 C 293.28125 48.722656 297.648438 53.089844 297.648438 58.472656 L 297.648438 127.304688 C 297.648438 132.691406 293.28125 137.054688 287.898438 137.054688 L 217.574219 137.054688 C 212.191406 137.054688 207.824219 132.691406 207.824219 127.304688 L 207.824219 58.472656 C 207.824219 53.089844 212.191406 48.722656 217.574219 48.722656 Z M 217.574219 48.722656 " clip-rule="nonzero"/></clipPath><clipPath id="5ece95eaa9"><path d="M 235 53 L 250 53 L 250 69 L 235 69 Z M 235 53 " clip-rule="nonzero"/></clipPath><clipPath id="9f0c6367a6"><path d="M 206.925781 57.574219 L 206.925781 128.207031 C 206.925781 133.589844 211.289062 137.957031 216.675781 137.957031 L 288.796875 137.957031 C 294.179688 137.957031 298.546875 133.589844 298.546875 128.207031 L 298.546875 57.574219 C 298.546875 52.1875 294.179688 47.824219 288.796875 47.824219 L 216.675781 47.824219 C 211.289062 47.824219 206.925781 52.1875 206.925781 57.574219 Z M 206.925781 57.574219 " clip-rule="nonzero"/></clipPath><clipPath id="6f9c40b689"><path d="M 217.574219 48.722656 L 287.898438 48.722656 C 293.28125 48.722656 297.648438 53.089844 297.648438 58.472656 L 297.648438 127.304688 C 297.648438 132.691406 293.28125 137.054688 287.898438 137.054688 L 217.574219 137.054688 C 212.191406 137.054688 207.824219 132.691406 207.824219 127.304688 L 207.824219 58.472656 C 207.824219 53.089844 212.191406 48.722656 217.574219 48.722656 Z M 217.574219 48.722656 " clip-rule="nonzero"/></clipPath><clipPath id="b741a8388a"><path d="M 255 53 L 270 53 L 270 69 L 255 69 Z M 255 53 " clip-rule="nonzero"/></clipPath><clipPath id="183190c511"><path d="M 206.925781 57.574219 L 206.925781 128.207031 C 206.925781 133.589844 211.289062 137.957031 216.675781 137.957031 L 288.796875 137.957031 C 294.179688 137.957031 298.546875 133.589844 298.546875 128.207031 L 298.546875 57.574219 C 298.546875 52.1875 294.179688 47.824219 288.796875 47.824219 L 216.675781 47.824219 C 211.289062 47.824219 206.925781 52.1875 206.925781 57.574219 Z M 206.925781 57.574219 " clip-rule="nonzero"/></clipPath><clipPath id="f45c8fa2ad"><path d="M 217.574219 48.722656 L 287.898438 48.722656 C 293.28125 48.722656 297.648438 53.089844 297.648438 58.472656 L 297.648438 127.304688 C 297.648438 132.691406 293.28125 137.054688 287.898438 137.054688 L 217.574219 137.054688 C 212.191406 137.054688 207.824219 132.691406 207.824219 127.304688 L 207.824219 58.472656 C 207.824219 53.089844 212.191406 48.722656 217.574219 48.722656 Z M 217.574219 48.722656 " clip-rule="nonzero"/></clipPath><clipPath id="63363b3412"><path d="M 275 53 L 290 53 L 290 69 L 275 69 Z M 275 53 " clip-rule="nonzero"/></clipPath><clipPath id="1e4f48719b"><path d="M 206.925781 57.574219 L 206.925781 128.207031 C 206.925781 133.589844 211.289062 137.957031 216.675781 137.957031 L 288.796875 137.957031 C 294.179688 137.957031 298.546875 133.589844 298.546875 128.207031 L 298.546875 57.574219 C 298.546875 52.1875 294.179688 47.824219 288.796875 47.824219 L 216.675781 47.824219 C 211.289062 47.824219 206.925781 52.1875 206.925781 57.574219 Z M 206.925781 57.574219 " clip-rule="nonzero"/></clipPath><clipPath id="59e0e606cb"><path d="M 217.574219 48.722656 L 287.898438 48.722656 C 293.28125 48.722656 297.648438 53.089844 297.648438 58.472656 L 297.648438 127.304688 C 297.648438 132.691406 293.28125 137.054688 287.898438 137.054688 L 217.574219 137.054688 C 212.191406 137.054688 207.824219 132.691406 207.824219 127.304688 L 207.824219 58.472656 C 207.824219 53.089844 212.191406 48.722656 217.574219 48.722656 Z M 217.574219 48.722656 " clip-rule="nonzero"/></clipPath><clipPath id="c6d61baea4"><path d="M 206.925781 47.824219 L 298.425781 47.824219 L 298.425781 137.824219 L 206.925781 137.824219 Z M 206.925781 47.824219 " clip-rule="nonzero"/></clipPath><clipPath id="b51cd7ef31"><path d="M 206.925781 57.574219 L 206.925781 128.207031 C 206.925781 133.589844 211.289062 137.957031 216.675781 137.957031 L 288.796875 137.957031 C 294.179688 137.957031 298.546875 133.589844 298.546875 128.207031 L 298.546875 57.574219 C 298.546875 52.1875 294.179688 47.824219 288.796875 47.824219 L 216.675781 47.824219 C 211.289062 47.824219 206.925781 52.1875 206.925781 57.574219 Z M 206.925781 57.574219 " clip-rule="nonzero"/></clipPath><clipPath id="2b173d332e"><path d="M 206.925781 57.574219 L 206.925781 128.203125 C 206.925781 133.585938 211.289062 137.953125 216.675781 137.953125 L 288.792969 137.953125 C 294.175781 137.953125 298.542969 133.585938 298.542969 128.203125 L 298.542969 57.574219 C 298.542969 52.1875 294.175781 47.824219 288.792969 47.824219 L 216.675781 47.824219 C 211.289062 47.824219 206.925781 52.1875 206.925781 57.574219 Z M 206.925781 57.574219 " clip-rule="nonzero"/></clipPath><clipPath id="3099408ec2"><path d="M 92.132812 111.210938 L 282.632812 111.210938 L 282.632812 301.710938 L 92.132812 301.710938 Z M 92.132812 111.210938 " clip-rule="nonzero"/></clipPath><clipPath id="a1325806ae"><path d="M 0.75 48.574219 L 71 48.574219 L 71 137.074219 L 0.75 137.074219 Z M 0.75 48.574219 " clip-rule="nonzero"/></clipPath><clipPath id="81bf50f59d"><path d="M 0 57.574219 L 0 128.207031 C 0 133.589844 4.363281 137.957031 9.75 137.957031 L 62.019531 137.957031 C 67.402344 137.957031 71.769531 133.589844 71.769531 128.207031 L 71.769531 57.574219 C 71.769531 52.1875 67.402344 47.824219 62.019531 47.824219 L 9.75 47.824219 C 4.363281 47.824219 0 52.1875 0 57.574219 Z M 0 57.574219 " clip-rule="nonzero"/></clipPath><clipPath id="85cd9e3a69"><path d="M 10.648438 48.722656 L 61.117188 48.722656 C 66.503906 48.722656 70.867188 53.089844 70.867188 58.472656 L 70.867188 127.304688 C 70.867188 132.691406 66.503906 137.054688 61.117188 137.054688 L 10.648438 137.054688 C 5.265625 137.054688 0.898438 132.691406 0.898438 127.304688 L 0.898438 58.472656 C 0.898438 53.089844 5.265625 48.722656 10.648438 48.722656 Z M 10.648438 48.722656 " clip-rule="nonzero"/></clipPath><clipPath id="8b1af8e7e5"><path d="M 41 52 L 47 52 L 47 58 L 41 58 Z M 41 52 " clip-rule="nonzero"/></clipPath><clipPath id="730d15dfd0"><path d="M 0 57.574219 L 0 128.207031 C 0 133.589844 4.363281 137.957031 9.75 137.957031 L 62.019531 137.957031 C 67.402344 137.957031 71.769531 133.589844 71.769531 128.207031 L 71.769531 57.574219 C 71.769531 52.1875 67.402344 47.824219 62.019531 47.824219 L 9.75 47.824219 C 4.363281 47.824219 0 52.1875 0 57.574219 Z M 0 57.574219 " clip-rule="nonzero"/></clipPath><clipPath id="e7bf936ab2"><path d="M 10.648438 48.722656 L 61.117188 48.722656 C 66.503906 48.722656 70.867188 53.089844 70.867188 58.472656 L 70.867188 127.304688 C 70.867188 132.691406 66.503906 137.054688 61.117188 137.054688 L 10.648438 137.054688 C 5.265625 137.054688 0.898438 132.691406 0.898438 127.304688 L 0.898438 58.472656 C 0.898438 53.089844 5.265625 48.722656 10.648438 48.722656 Z M 10.648438 48.722656 " clip-rule="nonzero"/></clipPath><clipPath id="4e390592c7"><path d="M 56 52 L 62 52 L 62 58 L 56 58 Z M 56 52 " clip-rule="nonzero"/></clipPath><clipPath id="429c5595d1"><path d="M 0 57.574219 L 0 128.207031 C 0 133.589844 4.363281 137.957031 9.75 137.957031 L 62.019531 137.957031 C 67.402344 137.957031 71.769531 133.589844 71.769531 128.207031 L 71.769531 57.574219 C 71.769531 52.1875 67.402344 47.824219 62.019531 47.824219 L 9.75 47.824219 C 4.363281 47.824219 0 52.1875 0 57.574219 Z M 0 57.574219 " clip-rule="nonzero"/></clipPath><clipPath id="c4984db6c3"><path d="M 10.648438 48.722656 L 61.117188 48.722656 C 66.503906 48.722656 70.867188 53.089844 70.867188 58.472656 L 70.867188 127.304688 C 70.867188 132.691406 66.503906 137.054688 61.117188 137.054688 L 10.648438 137.054688 C 5.265625 137.054688 0.898438 132.691406 0.898438 127.304688 L 0.898438 58.472656 C 0.898438 53.089844 5.265625 48.722656 10.648438 48.722656 Z M 10.648438 48.722656 " clip-rule="nonzero"/></clipPath><clipPath id="12cd1e5426"><path d="M 7 51 L 31 51 L 31 59 L 7 59 Z M 7 51 " clip-rule="nonzero"/></clipPath><clipPath id="7e7bdfda9e"><path d="M 0 57.574219 L 0 128.207031 C 0 133.589844 4.363281 137.957031 9.75 137.957031 L 62.019531 137.957031 C 67.402344 137.957031 71.769531 133.589844 71.769531 128.207031 L 71.769531 57.574219 C 71.769531 52.1875 67.402344 47.824219 62.019531 47.824219 L 9.75 47.824219 C 4.363281 47.824219 0 52.1875 0 57.574219 Z M 0 57.574219 " clip-rule="nonzero"/></clipPath><clipPath id="8e4f67570b"><path d="M 10.648438 48.722656 L 61.117188 48.722656 C 66.503906 48.722656 70.867188 53.089844 70.867188 58.472656 L 70.867188 127.304688 C 70.867188 132.691406 66.503906 137.054688 61.117188 137.054688 L 10.648438 137.054688 C 5.265625 137.054688 0.898438 132.691406 0.898438 127.304688 L 0.898438 58.472656 C 0.898438 53.089844 5.265625 48.722656 10.648438 48.722656 Z M 10.648438 48.722656 " clip-rule="nonzero"/></clipPath><clipPath id="acae73d3b9"><path d="M 9 74 L 64 74 L 64 129 L 9 129 Z M 9 74 " clip-rule="nonzero"/></clipPath><clipPath id="70bbb9dd10"><path d="M 0 57.574219 L 0 128.207031 C 0 133.589844 4.363281 137.957031 9.75 137.957031 L 62.019531 137.957031 C 67.402344 137.957031 71.769531 133.589844 71.769531 128.207031 L 71.769531 57.574219 C 71.769531 52.1875 67.402344 47.824219 62.019531 47.824219 L 9.75 47.824219 C 4.363281 47.824219 0 52.1875 0 57.574219 Z M 0 57.574219 " clip-rule="nonzero"/></clipPath><clipPath id="8a05f34e44"><path d="M 10.648438 48.722656 L 61.117188 48.722656 C 66.503906 48.722656 70.867188 53.089844 70.867188 58.472656 L 70.867188 127.304688 C 70.867188 132.691406 66.503906 137.054688 61.117188 137.054688 L 10.648438 137.054688 C 5.265625 137.054688 0.898438 132.691406 0.898438 127.304688 L 0.898438 58.472656 C 0.898438 53.089844 5.265625 48.722656 10.648438 48.722656 Z M 10.648438 48.722656 " clip-rule="nonzero"/></clipPath><clipPath id="e4f59b94e3"><path d="M 22 88 L 32 88 L 32 116 L 22 116 Z M 22 88 " clip-rule="nonzero"/></clipPath><clipPath id="92dcf21f36"><path d="M 0 57.574219 L 0 128.207031 C 0 133.589844 4.363281 137.957031 9.75 137.957031 L 62.019531 137.957031 C 67.402344 137.957031 71.769531 133.589844 71.769531 128.207031 L 71.769531 57.574219 C 71.769531 52.1875 67.402344 47.824219 62.019531 47.824219 L 9.75 47.824219 C 4.363281 47.824219 0 52.1875 0 57.574219 Z M 0 57.574219 " clip-rule="nonzero"/></clipPath><clipPath id="b58e29466a"><path d="M 10.648438 48.722656 L 61.117188 48.722656 C 66.503906 48.722656 70.867188 53.089844 70.867188 58.472656 L 70.867188 127.304688 C 70.867188 132.691406 66.503906 137.054688 61.117188 137.054688 L 10.648438 137.054688 C 5.265625 137.054688 0.898438 132.691406 0.898438 127.304688 L 0.898438 58.472656 C 0.898438 53.089844 5.265625 48.722656 10.648438 48.722656 Z M 10.648438 48.722656 " clip-rule="nonzero"/></clipPath><clipPath id="6cc146ea71"><path d="M 32 88 L 42 88 L 42 116 L 32 116 Z M 32 88 " clip-rule="nonzero"/></clipPath><clipPath id="56addad9b4"><path d="M 0 57.574219 L 0 128.207031 C 0 133.589844 4.363281 137.957031 9.75 137.957031 L 62.019531 137.957031 C 67.402344 137.957031 71.769531 133.589844 71.769531 128.207031 L 71.769531 57.574219 C 71.769531 52.1875 67.402344 47.824219 62.019531 47.824219 L 9.75 47.824219 C 4.363281 47.824219 0 52.1875 0 57.574219 Z M 0 57.574219 " clip-rule="nonzero"/></clipPath><clipPath id="bf459362e2"><path d="M 10.648438 48.722656 L 61.117188 48.722656 C 66.503906 48.722656 70.867188 53.089844 70.867188 58.472656 L 70.867188 127.304688 C 70.867188 132.691406 66.503906 137.054688 61.117188 137.054688 L 10.648438 137.054688 C 5.265625 137.054688 0.898438 132.691406 0.898438 127.304688 L 0.898438 58.472656 C 0.898438 53.089844 5.265625 48.722656 10.648438 48.722656 Z M 10.648438 48.722656 " clip-rule="nonzero"/></clipPath><clipPath id="6807b7ec7c"><path d="M 41 88 L 51 88 L 51 116 L 41 116 Z M 41 88 " clip-rule="nonzero"/></clipPath><clipPath id="8acd6cabeb"><path d="M 0 57.574219 L 0 128.207031 C 0 133.589844 4.363281 137.957031 9.75 137.957031 L 62.019531 137.957031 C 67.402344 137.957031 71.769531 133.589844 71.769531 128.207031 L 71.769531 57.574219 C 71.769531 52.1875 67.402344 47.824219 62.019531 47.824219 L 9.75 47.824219 C 4.363281 47.824219 0 52.1875 0 57.574219 Z M 0 57.574219 " clip-rule="nonzero"/></clipPath><clipPath id="fb88464c1a"><path d="M 10.648438 48.722656 L 61.117188 48.722656 C 66.503906 48.722656 70.867188 53.089844 70.867188 58.472656 L 70.867188 127.304688 C 70.867188 132.691406 66.503906 137.054688 61.117188 137.054688 L 10.648438 137.054688 C 5.265625 137.054688 0.898438 132.691406 0.898438 127.304688 L 0.898438 58.472656 C 0.898438 53.089844 5.265625 48.722656 10.648438 48.722656 Z M 10.648438 48.722656 " clip-rule="nonzero"/></clipPath><clipPath id="ba68bde87a"><path d="M 0 47.824219 L 71.996094 47.824219 L 71.996094 137.824219 L 0 137.824219 Z M 0 47.824219 " clip-rule="nonzero"/></clipPath><clipPath id="bf024483c5"><path d="M 0 57.574219 L 0 128.207031 C 0 133.589844 4.363281 137.957031 9.75 137.957031 L 62.019531 137.957031 C 67.402344 137.957031 71.769531 133.589844 71.769531 128.207031 L 71.769531 57.574219 C 71.769531 52.1875 67.402344 47.824219 62.019531 47.824219 L 9.75 47.824219 C 4.363281 47.824219 0 52.1875 0 57.574219 Z M 0 57.574219 " clip-rule="nonzero"/></clipPath><clipPath id="6eb1b65e0f"><path d="M 0 57.574219 L 0 128.203125 C 0 133.585938 4.363281 137.953125 9.75 137.953125 L 62.015625 137.953125 C 67.402344 137.953125 71.765625 133.585938 71.765625 128.203125 L 71.765625 57.574219 C 71.765625 52.1875 67.402344 47.824219 62.015625 47.824219 L 9.75 47.824219 C 4.363281 47.824219 0 52.1875 0 57.574219 Z M 0 57.574219 " clip-rule="nonzero"/></clipPath><clipPath id="f3d9ed2c27"><path d="M 325.5 48.574219 L 374.25 48.574219 L 374.25 137.074219 L 325.5 137.074219 Z M 325.5 48.574219 " clip-rule="nonzero"/></clipPath><clipPath id="5cfa408478"><path d="M 324.75 57.574219 L 324.75 128.207031 C 324.75 133.589844 329.117188 137.957031 334.5 137.957031 L 365.25 137.957031 C 370.632812 137.957031 375 133.589844 375 128.207031 L 375 57.574219 C 375 52.1875 370.632812 47.824219 365.25 47.824219 L 334.5 47.824219 C 329.117188 47.824219 324.75 52.1875 324.75 57.574219 Z M 324.75 57.574219 " clip-rule="nonzero"/></clipPath><clipPath id="f8ad5c178e"><path d="M 335.402344 48.722656 L 364.351562 48.722656 C 369.734375 48.722656 374.101562 53.089844 374.101562 58.472656 L 374.101562 127.304688 C 374.101562 132.691406 369.734375 137.054688 364.351562 137.054688 L 335.402344 137.054688 C 330.015625 137.054688 325.652344 132.691406 325.652344 127.304688 L 325.652344 58.472656 C 325.652344 53.089844 330.015625 48.722656 335.402344 48.722656 Z M 335.402344 48.722656 " clip-rule="nonzero"/></clipPath><clipPath id="dba7b190b4"><path d="M 325.5 78 L 374.25 78 L 374.25 80 L 325.5 80 Z M 325.5 78 " clip-rule="nonzero"/></clipPath><clipPath id="3fdd61bcdc"><path d="M 324.75 57.574219 L 324.75 128.207031 C 324.75 133.589844 329.117188 137.957031 334.5 137.957031 L 365.25 137.957031 C 370.632812 137.957031 375 133.589844 375 128.207031 L 375 57.574219 C 375 52.1875 370.632812 47.824219 365.25 47.824219 L 334.5 47.824219 C 329.117188 47.824219 324.75 52.1875 324.75 57.574219 Z M 324.75 57.574219 " clip-rule="nonzero"/></clipPath><clipPath id="e4983e3f05"><path d="M 335.402344 48.722656 L 364.351562 48.722656 C 369.734375 48.722656 374.101562 53.089844 374.101562 58.472656 L 374.101562 127.304688 C 374.101562 132.691406 369.734375 137.054688 364.351562 137.054688 L 335.402344 137.054688 C 330.015625 137.054688 325.652344 132.691406 325.652344 127.304688 L 325.652344 58.472656 C 325.652344 53.089844 330.015625 48.722656 335.402344 48.722656 Z M 335.402344 48.722656 " clip-rule="nonzero"/></clipPath><clipPath id="4280d6b40e"><path d="M 327 62 L 333 62 L 333 78 L 327 78 Z M 327 62 " clip-rule="nonzero"/></clipPath><clipPath id="187fc70cbb"><path d="M 324.75 57.574219 L 324.75 128.207031 C 324.75 133.589844 329.117188 137.957031 334.5 137.957031 L 365.25 137.957031 C 370.632812 137.957031 375 133.589844 375 128.207031 L 375 57.574219 C 375 52.1875 370.632812 47.824219 365.25 47.824219 L 334.5 47.824219 C 329.117188 47.824219 324.75 52.1875 324.75 57.574219 Z M 324.75 57.574219 " clip-rule="nonzero"/></clipPath><clipPath id="7228f580d7"><path d="M 335.402344 48.722656 L 364.351562 48.722656 C 369.734375 48.722656 374.101562 53.089844 374.101562 58.472656 L 374.101562 127.304688 C 374.101562 132.691406 369.734375 137.054688 364.351562 137.054688 L 335.402344 137.054688 C 330.015625 137.054688 325.652344 132.691406 325.652344 127.304688 L 325.652344 58.472656 C 325.652344 53.089844 330.015625 48.722656 335.402344 48.722656 Z M 335.402344 48.722656 " clip-rule="nonzero"/></clipPath><clipPath id="7a50571000"><path d="M 327 81 L 333 81 L 333 101 L 327 101 Z M 327 81 " clip-rule="nonzero"/></clipPath><clipPath id="10a2548533"><path d="M 324.75 57.574219 L 324.75 128.207031 C 324.75 133.589844 329.117188 137.957031 334.5 137.957031 L 365.25 137.957031 C 370.632812 137.957031 375 133.589844 375 128.207031 L 375 57.574219 C 375 52.1875 370.632812 47.824219 365.25 47.824219 L 334.5 47.824219 C 329.117188 47.824219 324.75 52.1875 324.75 57.574219 Z M 324.75 57.574219 " clip-rule="nonzero"/></clipPath><clipPath id="5c49e21e92"><path d="M 335.402344 48.722656 L 364.351562 48.722656 C 369.734375 48.722656 374.101562 53.089844 374.101562 58.472656 L 374.101562 127.304688 C 374.101562 132.691406 369.734375 137.054688 364.351562 137.054688 L 335.402344 137.054688 C 330.015625 137.054688 325.652344 132.691406 325.652344 127.304688 L 325.652344 58.472656 C 325.652344 53.089844 330.015625 48.722656 335.402344 48.722656 Z M 335.402344 48.722656 " clip-rule="nonzero"/></clipPath><clipPath id="fa2f825b5f"><path d="M 325.5 132 L 374.25 132 L 374.25 134 L 325.5 134 Z M 325.5 132 " clip-rule="nonzero"/></clipPath><clipPath id="d1f71befeb"><path d="M 324.75 57.574219 L 324.75 128.207031 C 324.75 133.589844 329.117188 137.957031 334.5 137.957031 L 365.25 137.957031 C 370.632812 137.957031 375 133.589844 375 128.207031 L 375 57.574219 C 375 52.1875 370.632812 47.824219 365.25 47.824219 L 334.5 47.824219 C 329.117188 47.824219 324.75 52.1875 324.75 57.574219 Z M 324.75 57.574219 " clip-rule="nonzero"/></clipPath><clipPath id="3a117f2803"><path d="M 335.402344 48.722656 L 364.351562 48.722656 C 369.734375 48.722656 374.101562 53.089844 374.101562 58.472656 L 374.101562 127.304688 C 374.101562 132.691406 369.734375 137.054688 364.351562 137.054688 L 335.402344 137.054688 C 330.015625 137.054688 325.652344 132.691406 325.652344 127.304688 L 325.652344 58.472656 C 325.652344 53.089844 330.015625 48.722656 335.402344 48.722656 Z M 335.402344 48.722656 " clip-rule="nonzero"/></clipPath><clipPath id="587973417e"><path d="M 324.75 47.824219 L 374.988281 47.824219 L 374.988281 137.824219 L 324.75 137.824219 Z M 324.75 47.824219 " clip-rule="nonzero"/></clipPath><clipPath id="1e00db552d"><path d="M 324.75 57.574219 L 324.75 128.207031 C 324.75 133.589844 329.117188 137.957031 334.5 137.957031 L 365.25 137.957031 C 370.632812 137.957031 375 133.589844 375 128.207031 L 375 57.574219 C 375 52.1875 370.632812 47.824219 365.25 47.824219 L 334.5 47.824219 C 329.117188 47.824219 324.75 52.1875 324.75 57.574219 Z M 324.75 57.574219 " clip-rule="nonzero"/></clipPath><clipPath id="f53cdb38fe"><path d="M 324.75 57.574219 L 324.75 128.203125 C 324.75 133.585938 329.117188 137.953125 334.5 137.953125 L 365.242188 137.953125 C 370.625 137.953125 374.988281 133.585938 374.988281 128.203125 L 374.988281 57.574219 C 374.988281 52.1875 370.625 47.824219 365.242188 47.824219 L 334.5 47.824219 C 329.117188 47.824219 324.75 52.1875 324.75 57.574219 Z M 324.75 57.574219 " clip-rule="nonzero"/></clipPath></defs><g clip-path="url(#8d2bc19de2)"><g clip-path="url(#44906e6491)"><g clip-path="url(#436b5fb41c)"><path fill="#231f20" d="M 160.417969 55.4375 L 157.785156 55.4375 L 157.785156 53.242188 L 160.417969 53.242188 L 160.417969 55.4375 " fill-opacity="1" fill-rule="nonzero"/></g></g></g><g clip-path="url(#0ad8635f44)"><g clip-path="url(#684244acdb)"><g clip-path="url(#b69bc7ac3f)"><path fill="#231f20" d="M 165.820312 55.4375 L 163.191406 55.4375 L 163.191406 53.242188 L 165.820312 53.242188 L 165.820312 55.4375 " fill-opacity="1" fill-rule="nonzero"/></g></g></g><g clip-path="url(#740facb2d1)"><g clip-path="url(#1e81554f6d)"><g clip-path="url(#398a7069d4)"><path fill="#231f20" d="M 160.417969 59.789062 L 157.785156 59.789062 L 157.785156 57.59375 L 160.417969 57.59375 L 160.417969 59.789062 " fill-opacity="1" fill-rule="nonzero"/></g></g></g><g clip-path="url(#bf33f7e593)"><g clip-path="url(#8d5b6ef743)"><g clip-path="url(#a2d5c6792c)"><path fill="#231f20" d="M 165.820312 59.789062 L 163.191406 59.789062 L 163.191406 57.59375 L 165.820312 57.59375 L 165.820312 59.789062 " fill-opacity="1" fill-rule="nonzero"/></g></g></g><g clip-path="url(#ecfd8eb386)"><g clip-path="url(#cdce4a0248)"><g clip-path="url(#03fd77d195)"><path fill="#231f20" d="M 171.226562 55.4375 L 168.597656 55.4375 L 168.597656 53.242188 L 171.226562 53.242188 L 171.226562 55.4375 " fill-opacity="1" fill-rule="nonzero"/></g></g></g><g clip-path="url(#e496e99327)"><g clip-path="url(#653625a35d)"><g clip-path="url(#f27c3034f8)"><path fill="#231f20" d="M 171.226562 59.789062 L 168.597656 59.789062 L 168.597656 57.59375 L 171.226562 57.59375 L 171.226562 59.789062 " fill-opacity="1" fill-rule="nonzero"/></g></g></g><g clip-path="url(#ec95ba514e)"><g clip-path="url(#43faa4ce09)"><g clip-path="url(#67d5f96c8c)"><path fill="#231f20" d="M 110.652344 50.011719 C 109.214844 50.011719 108.046875 51.183594 108.046875 52.617188 L 108.046875 133.027344 C 108.046875 134.464844 109.214844 135.632812 110.652344 135.632812 L 176.035156 135.632812 C 177.472656 135.632812 178.640625 134.464844 178.640625 133.027344 L 178.640625 52.617188 C 178.640625 51.183594 177.472656 50.011719 176.035156 50.011719 Z M 176.035156 137.820312 L 110.652344 137.820312 C 108.003906 137.820312 105.847656 135.671875 105.847656 133.027344 L 105.847656 52.617188 C 105.847656 49.972656 108.003906 47.820312 110.652344 47.820312 L 176.035156 47.820312 C 178.683594 47.820312 180.839844 49.972656 180.839844 52.617188 L 180.839844 133.027344 C 180.839844 135.671875 178.683594 137.820312 176.035156 137.820312 " fill-opacity="1" fill-rule="nonzero"/></g></g></g><g clip-path="url(#9d95468e06)"><g clip-path="url(#2c1dd7692f)"><g clip-path="url(#a9c85200f4)"><path fill="#231f20" d="M 179.742188 65.210938 L 106.945312 65.210938 L 106.945312 63.019531 L 179.742188 63.019531 L 179.742188 65.210938 " fill-opacity="1" fill-rule="nonzero"/></g></g></g><g clip-path="url(#6e7e1f710c)"><g clip-path="url(#97854e9e89)"><g clip-path="url(#eafa03d03b)"><path fill="#231f20" d="M 143.34375 74.785156 C 129.171875 74.785156 117.644531 86.285156 117.644531 100.417969 C 117.644531 114.554688 129.171875 126.054688 143.34375 126.054688 C 157.515625 126.054688 169.042969 114.554688 169.042969 100.417969 C 169.042969 86.285156 157.515625 74.785156 143.34375 74.785156 Z M 143.34375 128.246094 C 127.960938 128.246094 115.445312 115.765625 115.445312 100.417969 C 115.445312 85.078125 127.960938 72.597656 143.34375 72.597656 C 158.722656 72.597656 171.238281 85.078125 171.238281 100.417969 C 171.238281 115.765625 158.722656 128.246094 143.34375 128.246094 " fill-opacity="1" fill-rule="nonzero"/></g></g></g><g clip-path="url(#f6e79de683)"><g clip-path="url(#750d32e9d2)"><g clip-path="url(#618e073ef6)"><path fill="#231f20" d="M 143.34375 81.992188 C 133.15625 81.992188 124.871094 90.257812 124.871094 100.417969 C 124.871094 110.578125 133.15625 118.847656 143.34375 118.847656 C 153.527344 118.847656 161.816406 110.578125 161.816406 100.417969 C 161.816406 90.257812 153.527344 81.992188 143.34375 81.992188 Z M 143.34375 121.039062 C 131.945312 121.039062 122.671875 111.789062 122.671875 100.417969 C 122.671875 89.050781 131.945312 79.800781 143.34375 79.800781 C 154.742188 79.800781 164.015625 89.050781 164.015625 100.417969 C 164.015625 111.789062 154.742188 121.039062 143.34375 121.039062 " fill-opacity="1" fill-rule="nonzero"/></g></g></g><g clip-path="url(#ee879ffbcb)"><g clip-path="url(#74261d6b9d)"><g clip-path="url(#cdac175bbd)"><path fill="#231f20" d="M 157.785156 101.515625 C 157.179688 101.515625 156.6875 101.023438 156.6875 100.417969 C 156.6875 93.078125 150.703125 87.109375 143.34375 87.109375 C 142.738281 87.109375 142.242188 86.617188 142.242188 86.011719 C 142.242188 85.40625 142.738281 84.917969 143.34375 84.917969 C 151.914062 84.917969 158.886719 91.871094 158.886719 100.417969 C 158.886719 101.023438 158.394531 101.515625 157.785156 101.515625 " fill-opacity="1" fill-rule="nonzero"/></g></g></g><g clip-path="url(#6c3e525e2a)"><g clip-path="url(#12da0ff1a4)"><g clip-path="url(#5599cf380d)"><path fill="#231f20" d="M 133.5 59.914062 L 118.136719 59.914062 C 116.632812 59.914062 115.40625 58.691406 115.40625 57.191406 L 115.40625 54.210938 L 117.601562 54.210938 L 117.601562 57.191406 C 117.601562 57.484375 117.839844 57.726562 118.136719 57.726562 L 133.5 57.726562 C 133.796875 57.726562 134.035156 57.484375 134.035156 57.191406 L 134.035156 54.210938 L 136.230469 54.210938 L 136.230469 57.191406 C 136.230469 58.691406 135.007812 59.914062 133.5 59.914062 " fill-opacity="1" fill-rule="nonzero"/></g></g></g><g clip-path="url(#c2070e6f81)"><g clip-path="url(#7c9720340c)"><g clip-path="url(#034b268f5c)"><path stroke-linecap="butt" transform="matrix(0.75, 0, 0, 0.75, 105.797503, 47.82281)" fill="none" stroke-linejoin="miter" d="M -0.000837537 13.001879 L -0.000837537 107.173754 C -0.000837537 114.350837 5.82208 120.173754 12.999163 120.173754 L 86.889793 120.173754 C 94.072085 120.173754 99.889794 114.350837 99.889794 107.173754 L 99.889794 13.001879 C 99.889794 5.819587 94.072085 0.00187879 86.889793 0.00187879 L 12.999163 0.00187879 C 5.82208 0.00187879 -0.000837537 5.819587 -0.000837537 13.001879 Z M -0.000837537 13.001879 " stroke="#1a2546" stroke-width="10" stroke-opacity="1" stroke-miterlimit="4"/></g></g></g><g clip-path="url(#83c9cfc2fa)"><g clip-path="url(#d0c9497bd1)"><g clip-path="url(#841a0b9e13)"><path fill="#292727" d="M 212.410156 50.753906 L 292.953125 50.753906 C 294.355469 50.753906 295.492188 51.953125 295.492188 53.429688 L 295.492188 72.214844 L 209.871094 72.214844 L 209.871094 53.429688 C 209.871094 51.953125 211.011719 50.753906 212.410156 50.753906 Z M 292.953125 134.867188 L 212.410156 134.867188 C 211.011719 134.867188 209.871094 133.667969 209.871094 132.191406 L 209.871094 75.152344 L 295.492188 75.152344 L 295.492188 132.191406 C 295.492188 133.667969 294.355469 134.867188 292.953125 134.867188 Z M 212.410156 137.804688 L 292.953125 137.804688 C 295.976562 137.804688 298.429688 135.285156 298.429688 132.191406 L 298.429688 53.429688 C 298.429688 50.332031 295.976562 47.8125 292.953125 47.8125 L 212.410156 47.8125 C 209.390625 47.8125 206.933594 50.332031 206.933594 53.429688 L 206.933594 132.191406 C 206.933594 135.285156 209.390625 137.804688 212.410156 137.804688 " fill-opacity="1" fill-rule="nonzero"/></g></g></g><g clip-path="url(#21b4d23597)"><g clip-path="url(#fe17e6ad44)"><g clip-path="url(#f726f81ed4)"><path fill="#292727" d="M 287.8125 128.042969 L 217.550781 128.042969 L 217.550781 82.339844 L 287.8125 82.339844 Z M 287.949219 79.402344 L 217.417969 79.402344 C 215.871094 79.402344 214.613281 80.679688 214.613281 82.253906 L 214.613281 128.128906 C 214.613281 129.703125 215.871094 130.980469 217.417969 130.980469 L 287.949219 130.980469 C 289.496094 130.980469 290.753906 129.703125 290.753906 128.128906 L 290.753906 82.253906 C 290.753906 80.679688 289.496094 79.402344 287.949219 79.402344 " fill-opacity="1" fill-rule="nonzero"/></g></g></g><g clip-path="url(#de0a6c34a2)"><g clip-path="url(#10a253a310)"><g clip-path="url(#c18833ec6c)"><path fill="#292727" d="M 237.453125 88.789062 L 267.910156 88.789062 C 268.722656 88.789062 269.378906 88.128906 269.378906 87.320312 C 269.378906 86.507812 268.722656 85.851562 267.910156 85.851562 L 237.453125 85.851562 C 236.644531 85.851562 235.984375 86.507812 235.984375 87.320312 C 235.984375 88.128906 236.644531 88.789062 237.453125 88.789062 " fill-opacity="1" fill-rule="nonzero"/></g></g></g><g clip-path="url(#d22ad4791b)"><g clip-path="url(#928890e055)"><g clip-path="url(#2f77159eb9)"><path fill="#292727" d="M 222.664062 56.734375 C 225.046875 56.734375 226.984375 58.761719 226.984375 61.253906 C 226.984375 63.746094 225.046875 65.773438 222.664062 65.773438 C 220.28125 65.773438 218.34375 63.746094 218.34375 61.253906 C 218.34375 58.761719 220.28125 56.734375 222.664062 56.734375 Z M 222.664062 68.710938 C 226.667969 68.710938 229.921875 65.367188 229.921875 61.253906 C 229.921875 57.140625 226.667969 53.796875 222.664062 53.796875 C 218.664062 53.796875 215.40625 57.140625 215.40625 61.253906 C 215.40625 65.367188 218.664062 68.710938 222.664062 68.710938 " fill-opacity="1" fill-rule="nonzero"/></g></g></g><g clip-path="url(#5ece95eaa9)"><g clip-path="url(#9f0c6367a6)"><g clip-path="url(#6f9c40b689)"><path fill="#292727" d="M 242.675781 56.734375 C 245.058594 56.734375 246.996094 58.761719 246.996094 61.253906 C 246.996094 63.746094 245.058594 65.773438 242.675781 65.773438 C 240.292969 65.773438 238.359375 63.746094 238.359375 61.253906 C 238.359375 58.761719 240.292969 56.734375 242.675781 56.734375 Z M 242.675781 68.710938 C 246.679688 68.710938 249.933594 65.367188 249.933594 61.253906 C 249.933594 57.140625 246.679688 53.796875 242.675781 53.796875 C 238.675781 53.796875 235.417969 57.140625 235.417969 61.253906 C 235.417969 65.367188 238.675781 68.710938 242.675781 68.710938 " fill-opacity="1" fill-rule="nonzero"/></g></g></g><g clip-path="url(#b741a8388a)"><g clip-path="url(#183190c511)"><g clip-path="url(#f45c8fa2ad)"><path fill="#292727" d="M 262.6875 56.734375 C 265.070312 56.734375 267.007812 58.761719 267.007812 61.253906 C 267.007812 63.746094 265.070312 65.773438 262.6875 65.773438 C 260.304688 65.773438 258.367188 63.746094 258.367188 61.253906 C 258.367188 58.761719 260.304688 56.734375 262.6875 56.734375 Z M 262.6875 68.710938 C 266.691406 68.710938 269.945312 65.367188 269.945312 61.253906 C 269.945312 57.140625 266.691406 53.796875 262.6875 53.796875 C 258.6875 53.796875 255.429688 57.140625 255.429688 61.253906 C 255.429688 65.367188 258.6875 68.710938 262.6875 68.710938 " fill-opacity="1" fill-rule="nonzero"/></g></g></g><g clip-path="url(#63363b3412)"><g clip-path="url(#1e4f48719b)"><g clip-path="url(#59e0e606cb)"><path fill="#292727" d="M 282.699219 56.734375 C 285.082031 56.734375 287.019531 58.761719 287.019531 61.253906 C 287.019531 63.746094 285.082031 65.773438 282.699219 65.773438 C 280.320312 65.773438 278.378906 63.746094 278.378906 61.253906 C 278.378906 58.761719 280.320312 56.734375 282.699219 56.734375 Z M 282.699219 68.710938 C 286.703125 68.710938 289.957031 65.367188 289.957031 61.253906 C 289.957031 57.140625 286.703125 53.796875 282.699219 53.796875 C 278.699219 53.796875 275.441406 57.140625 275.441406 61.253906 C 275.441406 65.367188 278.699219 68.710938 282.699219 68.710938 " fill-opacity="1" fill-rule="nonzero"/></g></g></g><g clip-path="url(#c6d61baea4)"><g clip-path="url(#b51cd7ef31)"><g clip-path="url(#2b173d332e)"><path stroke-linecap="butt" transform="matrix(0.75, 0, 0, 0.75, 206.924845, 47.82281)" fill="none" stroke-linejoin="miter" d="M 0.00124898 13.001879 L 0.00124898 107.173754 C 0.00124898 114.350837 5.818958 120.173754 13.00125 120.173754 L 109.157506 120.173754 C 116.33459 120.173754 122.157507 114.350837 122.157507 107.173754 L 122.157507 13.001879 C 122.157507 5.819587 116.33459 0.00187879 109.157506 0.00187879 L 13.00125 0.00187879 C 5.818958 0.00187879 0.00124898 5.819587 0.00124898 13.001879 Z M 0.00124898 13.001879 " stroke="#1a2546" stroke-width="10" stroke-opacity="1" stroke-miterlimit="4"/></g></g></g><g clip-path="url(#3099408ec2)"><path fill="#1a2546" d="M 282.617188 206.457031 C 282.617188 259.054688 239.976562 301.695312 187.375 301.695312 C 134.773438 301.695312 92.132812 259.054688 92.132812 206.457031 C 92.132812 153.851562 134.773438 111.210938 187.375 111.210938 C 239.976562 111.210938 282.617188 153.851562 282.617188 206.457031 " fill-opacity="1" fill-rule="nonzero"/></g><path fill="#ffffff" d="M 100.265625 206.457031 C 100.265625 158.34375 139.265625 119.34375 187.375 119.34375 C 235.488281 119.34375 274.488281 158.34375 274.488281 206.457031 C 274.488281 254.566406 235.488281 293.566406 187.375 293.566406 C 139.265625 293.566406 100.265625 254.566406 100.265625 206.457031 " fill-opacity="1" fill-rule="nonzero"/><path fill="#3d8ad0" d="M 187.375 121.132812 C 234.5 121.132812 272.699219 159.332031 272.699219 206.457031 C 272.699219 253.578125 234.5 291.777344 187.375 291.777344 C 140.253906 291.777344 102.054688 253.578125 102.054688 206.457031 C 102.054688 159.332031 140.253906 121.132812 187.375 121.132812 " fill-opacity="1" fill-rule="nonzero"/><path fill="#ffffff" d="M 140.042969 195.574219 C 133.40625 195.769531 126.199219 189.625 131.707031 181.398438 L 126.988281 174.671875 L 126.859375 174.335938 C 125.695312 171.296875 124.558594 165.902344 129.945312 161.824219 L 145.371094 152.347656 L 145.882812 152.246094 C 150.441406 151.335938 154.414062 151.855469 158.664062 155.625 L 161.507812 158.148438 L 144.410156 169.269531 L 146.144531 171.710938 L 162.433594 162.796875 L 167.726562 172.507812 L 167.644531 173.390625 C 167.25 177.605469 167.621094 181.863281 168.773438 186.1875 L 174.25 194.53125 C 174.871094 192.457031 175.367188 190.074219 175.6875 187.273438 C 173.453125 183.707031 171.871094 180.207031 171.011719 176.78125 C 166.492188 162.476562 172.863281 151.824219 187.207031 145.773438 L 187.378906 145.703125 L 187.5625 145.652344 L 188.289062 145.457031 L 203.878906 145.457031 C 208.921875 147.140625 213.0625 150.710938 216.164062 156.191406 C 217.519531 156.179688 219.492188 156.164062 221.480469 156.164062 C 223.28125 156.160156 225.097656 156.167969 226.496094 156.195312 C 227.230469 156.210938 227.851562 156.230469 228.308594 156.257812 C 229.570312 156.335938 230.3125 156.710938 230.488281 156.828125 C 232.785156 158.335938 232.726562 160.820312 232.171875 162.445312 C 231.648438 163.984375 230.546875 165.476562 229.363281 166.75 C 227.875 168.355469 225.917969 169.976562 223.796875 171.320312 L 225.753906 172.980469 L 226.015625 173.714844 C 226.902344 176.191406 225.75 178.445312 223.773438 179.730469 L 222.109375 180.609375 L 222.917969 183.164062 L 222.011719 184.117188 C 222.203125 184.730469 222.828125 185.265625 222.742188 186.003906 C 222.65625 187.046875 221.757812 187.769531 221.289062 188.328125 C 221.613281 189.066406 221.800781 189.773438 221.84375 190.46875 C 222.179688 195.628906 217.511719 197.515625 215.996094 198.050781 L 210.464844 199.402344 L 210.472656 200.246094 C 212.085938 201.292969 213.699219 202.710938 214.710938 204.628906 C 220.101562 206.683594 224.660156 208.285156 228.390625 209.84375 C 232.417969 211.53125 235.890625 213.328125 238.390625 215.835938 L 238.5625 216.007812 L 238.699219 216.203125 C 244.953125 225.007812 253.304688 239.792969 258.789062 256.351562 C 243.042969 278.851562 216.925781 293.566406 187.375 293.566406 C 160.609375 293.566406 136.664062 281.492188 120.683594 262.496094 C 120.261719 257.203125 122.398438 250.085938 126.15625 247.976562 C 133.636719 226.613281 140.121094 214.929688 145.722656 211.011719 C 147.527344 209.597656 149.539062 208.519531 151.613281 207.621094 L 148.117188 202.035156 L 147.636719 202.265625 L 147.480469 202.320312 C 142.597656 204.003906 140.125 199.265625 140.042969 195.574219 " fill-opacity="1" fill-rule="nonzero"/><path fill="#1a2546" d="M 245.65625 233.214844 L 255.753906 260.429688 C 239.800781 280.613281 215.101562 293.566406 187.375 293.566406 C 172.316406 293.566406 158.152344 289.746094 145.796875 283.019531 L 148.050781 256.351562 L 245.65625 233.214844 " fill-opacity="1" fill-rule="nonzero"/><path fill="#1a2546" d="M 207.59375 201.917969 L 207.539062 197.132812 L 215.171875 195.277344 C 216.707031 194.734375 219.140625 193.566406 218.953125 190.65625 C 218.914062 190.046875 218.613281 189.144531 217.527344 187.6875 C 217.644531 186.867188 219.261719 187.152344 219.347656 185.667969 C 219.480469 184.730469 219.0625 184.023438 218.09375 183.539062 L 219.585938 182.234375 L 218.617188 179.171875 L 222.3125 177.234375 C 223.332031 176.570312 223.65625 175.722656 223.289062 174.6875 L 218.652344 170.746094 C 224.925781 168.214844 231.863281 161.199219 228.898438 159.25 C 228.417969 158.933594 214.433594 159.109375 214.433594 159.109375 C 209.234375 148.644531 200.535156 145.089844 188.332031 148.445312 C 175.035156 154.050781 169.777344 163.363281 173.800781 175.992188 C 174.628906 179.335938 176.253906 182.863281 178.675781 186.566406 C 178.082031 192.699219 176.710938 197.152344 174.867188 200.753906 C 165.261719 207.613281 154.222656 207.976562 147.445312 213.34375 C 142.632812 216.648438 136.210938 227.742188 128.433594 250.257812 C 124.085938 250.257812 121.894531 264.535156 124.792969 265.695312 C 123.480469 284.089844 127.261719 295.730469 135.914062 298.195312 C 146.65625 299.78125 154.703125 295.078125 173.621094 271.902344 L 254.128906 260.804688 C 249.777344 238.539062 244.164062 228.902344 236.339844 217.882812 C 232.183594 213.710938 224.25 211.40625 212.539062 206.902344 C 211.804688 204.675781 209.804688 203.089844 207.59375 201.917969 " fill-opacity="1" fill-rule="evenodd"/><path fill="#1a2546" d="M 206.113281 248.386719 L 166.097656 187.390625 C 164.765625 182.597656 164.316406 177.84375 164.761719 173.121094 L 161.28125 166.730469 L 145.269531 175.488281 L 140.300781 168.484375 L 156.742188 157.792969 C 153.28125 154.722656 150.269531 154.328125 146.449219 155.089844 L 131.578125 164.214844 C 127.8125 167.0625 128.523438 170.585938 129.566406 173.300781 L 135.296875 181.472656 C 129.015625 188.671875 135.847656 194.40625 141.765625 192.394531 L 143.867188 191.4375 L 144.570312 192.761719 L 143.105469 194.226562 C 142.011719 196.917969 144.3125 200.347656 146.535156 199.582031 L 148.753906 198.527344 C 149.441406 199.625 151.070312 202.339844 153.71875 206.570312 C 155.789062 209.007812 161.378906 207.433594 161.210938 203.199219 L 198.734375 254.671875 C 204.972656 257.125 207.433594 255.03125 206.113281 248.386719 " fill-opacity="1" fill-rule="evenodd"/><path fill="#ffffff" d="M 205.402344 168.902344 C 202.414062 168.597656 200.058594 168.355469 198.339844 168.179688 C 197.738281 170.960938 196.242188 173.625 196.699219 174.941406 L 192.332031 175.519531 C 181.289062 162.496094 179.933594 185.777344 190.976562 185 C 190.144531 186.613281 187.328125 187.148438 184.699219 186.214844 L 181.914062 187.863281 L 177.929688 204 L 184.007812 212.726562 C 188.382812 213.417969 193.253906 213.085938 196.652344 212.394531 C 198.539062 210.339844 199.519531 204.601562 199.058594 198.042969 C 195.757812 194.726562 192.40625 192.476562 193.113281 187.863281 C 195.605469 192.476562 202.070312 194.449219 209.269531 192.546875 C 210.796875 192.355469 213.597656 190.441406 210.308594 187.167969 L 209.476562 182.710938 C 208.964844 179.359375 210.558594 178.292969 208.164062 174.164062 L 205.195312 171.195312 L 205.402344 168.902344 " fill-opacity="1" fill-rule="evenodd"/><path fill="#ffffff" d="M 225.757812 160.628906 L 213.222656 160.628906 L 198.972656 165.609375 C 209.921875 168.378906 218.851562 166.71875 225.757812 160.628906 " fill-opacity="1" fill-rule="evenodd"/><path fill="#ffffff" d="M 211.332031 159.257812 L 199.316406 162.347656 C 198.53125 155.640625 192.976562 153.007812 182.664062 154.449219 C 193.625 146.464844 203.179688 148.066406 211.332031 159.257812 " fill-opacity="1" fill-rule="evenodd"/><path fill="#ffffff" d="M 191.210938 222.929688 L 179.363281 231.644531 C 176.496094 240.460938 173.996094 246.265625 171.867188 249.0625 C 158.84375 256.988281 146.53125 263.195312 134.933594 267.6875 L 138.820312 263.800781 C 135.175781 263.421875 131.871094 263.917969 128.902344 265.292969 C 126.660156 281.113281 129.472656 290.597656 137.179688 294.9375 C 145.152344 295.644531 159.570312 283.65625 180.433594 258.96875 C 185.167969 258.296875 189.667969 256.25 194.324219 250.246094 L 202.800781 242.519531 C 203.417969 240.910156 203.601562 239.351562 201.699219 239.015625 L 196.328125 242.785156 C 195.210938 242.875 194.496094 242.5625 195.0625 241.585938 L 200.496094 236.816406 C 201.269531 235.25 200.933594 234.546875 199.164062 233.648438 L 192.558594 238.347656 C 191.515625 238.425781 191.097656 238.191406 191.492188 237.214844 L 198.148438 231.164062 C 198.515625 229.394531 197.84375 228.210938 196.128906 227.605469 L 189.4375 233.363281 C 188.320312 233.675781 188.070312 233.128906 188.6875 231.722656 L 194.496094 226.382812 C 194.636719 224.703125 193.144531 221.933594 191.210938 222.929688 " fill-opacity="1" fill-rule="evenodd"/><path fill="#ffffff" d="M 199.160156 216.09375 L 186.074219 216.023438 L 189.808594 221.859375 C 191.421875 220.527344 194.730469 220.78125 195.773438 223.4375 L 199.160156 216.09375 " fill-opacity="1" fill-rule="evenodd"/><path fill="#ffffff" d="M 207.601562 205.25 C 202.832031 214.246094 198.882812 221.910156 196.882812 225.675781 C 199.070312 226.367188 199.742188 228.878906 199.832031 230.921875 C 201.363281 231.5 202.097656 231.878906 202.558594 233.628906 L 216.285156 233.621094 L 216.273438 212.4375 C 214.234375 211.75 212.59375 210.550781 211.351562 208.835938 L 213.96875 226.21875 C 209.890625 223.980469 206.019531 222.074219 204.3125 222.625 L 198.835938 224.6875 C 198.835938 224.6875 201.898438 220.511719 204.617188 219.457031 C 207.265625 218.984375 208.019531 220.1875 211.394531 221.507812 L 209.851562 207.5 C 209.28125 206.023438 208.527344 205.273438 207.601562 205.25 " fill-opacity="1" fill-rule="evenodd"/><path fill="#ffffff" d="M 168.875 215.472656 L 169.777344 233.742188 L 176.640625 233.742188 L 177.824219 229.085938 L 168.875 215.472656 " fill-opacity="1" fill-rule="evenodd"/><path fill="#ffffff" d="M 152.398438 158.28125 C 150.484375 157.21875 148.304688 157.054688 145.867188 157.792969 C 138.832031 162.476562 134.210938 164.832031 132.914062 165.789062 C 131.175781 167.457031 130.296875 169.703125 131.304688 172.035156 L 137.417969 179.757812 L 142.445312 176.726562 L 136.789062 168.726562 L 152.398438 158.28125 " fill-opacity="1" fill-rule="evenodd"/><path fill="#ffffff" d="M 160.421875 169.679688 L 136.546875 184.132812 C 134.851562 188.570312 136.328125 190.652344 140.980469 190.375 C 138.828125 188.503906 138.828125 186.488281 140.980469 184.332031 L 158.769531 173.984375 L 160.421875 169.679688 " fill-opacity="1" fill-rule="evenodd"/><path fill="#ffffff" d="M 152.261719 189.574219 L 144.859375 194.585938 L 146.535156 197.136719 L 154.082031 192.796875 L 152.261719 189.574219 " fill-opacity="1" fill-rule="evenodd"/><path fill="#ffffff" d="M 162.542969 187.355469 L 187.257812 223.722656 C 186.507812 224.203125 185.792969 224.667969 185.101562 225.144531 L 160.332031 188.566406 L 155.890625 181.507812 L 161.128906 178.285156 C 160.652344 180.90625 161.125 183.925781 162.542969 187.355469 " fill-opacity="1" fill-rule="evenodd"/><path fill="#ffffff" d="M 203.054688 251.648438 L 200.730469 248.21875 C 201.40625 247.699219 202.019531 247.105469 202.789062 246.574219 L 204.871094 249.636719 C 207.324219 254.78125 206.71875 258.410156 203.054688 260.515625 C 204.667969 257.972656 204.667969 255.019531 203.054688 251.648438 " fill-opacity="1" fill-rule="evenodd"/><path fill="#ffffff" d="M 150.160156 197.570312 L 155.269531 205.492188 C 157.070312 206.359375 158.414062 205.710938 159.296875 203.550781 C 158.414062 204.234375 157.449219 204.347656 156.398438 203.890625 L 151.898438 196.761719 L 150.160156 197.570312 " fill-opacity="1" fill-rule="evenodd"/><g clip-path="url(#a1325806ae)"><g clip-path="url(#81bf50f59d)"><g clip-path="url(#85cd9e3a69)"><path fill="#231f20" d="M 67.132812 47.882812 L 4.863281 47.882812 C 2.183594 47.882812 0.00390625 50.054688 0.00390625 52.722656 L 0.00390625 132.921875 C 0.00390625 135.589844 2.183594 137.761719 4.863281 137.761719 L 67.132812 137.761719 C 69.8125 137.761719 71.992188 135.589844 71.992188 132.921875 L 71.992188 52.722656 C 72.003906 50.054688 69.820312 47.882812 67.132812 47.882812 Z M 4.863281 50.542969 L 67.132812 50.542969 C 68.347656 50.542969 69.332031 51.523438 69.332031 52.730469 L 69.332031 59.867188 L 2.671875 59.867188 L 2.671875 52.722656 C 2.671875 51.523438 3.660156 50.542969 4.863281 50.542969 Z M 67.132812 135.121094 L 4.863281 135.121094 C 3.648438 135.121094 2.664062 134.140625 2.664062 132.929688 L 2.664062 62.515625 L 69.324219 62.515625 L 69.324219 132.929688 C 69.332031 134.128906 68.347656 135.121094 67.132812 135.121094 Z M 67.132812 135.121094 " fill-opacity="1" fill-rule="nonzero"/></g></g></g><g clip-path="url(#8b1af8e7e5)"><g clip-path="url(#730d15dfd0)"><g clip-path="url(#e7bf936ab2)"><path fill="#231f20" d="M 44.046875 57.496094 C 42.6875 57.496094 41.578125 56.390625 41.578125 55.039062 C 41.578125 53.683594 42.6875 52.578125 44.046875 52.578125 C 45.40625 52.578125 46.515625 53.683594 46.515625 55.039062 C 46.515625 56.390625 45.40625 57.496094 44.046875 57.496094 Z M 44.046875 53.457031 C 43.175781 53.457031 42.46875 54.160156 42.46875 55.027344 C 42.46875 55.894531 43.175781 56.601562 44.046875 56.601562 C 44.917969 56.601562 45.625 55.894531 45.625 55.027344 C 45.625 54.160156 44.917969 53.457031 44.046875 53.457031 Z M 44.046875 53.457031 " fill-opacity="1" fill-rule="nonzero"/></g></g></g><g clip-path="url(#4e390592c7)"><g clip-path="url(#429c5595d1)"><g clip-path="url(#c4984db6c3)"><path fill="#231f20" d="M 58.890625 57.496094 C 57.53125 57.496094 56.421875 56.390625 56.421875 55.039062 C 56.421875 53.683594 57.53125 52.578125 58.890625 52.578125 C 60.25 52.578125 61.359375 53.683594 61.359375 55.039062 C 61.359375 56.390625 60.257812 57.496094 58.890625 57.496094 Z M 58.890625 53.457031 C 58.019531 53.457031 57.3125 54.160156 57.3125 55.027344 C 57.3125 55.894531 58.019531 56.601562 58.890625 56.601562 C 59.761719 56.601562 60.46875 55.894531 60.46875 55.027344 C 60.480469 54.160156 59.761719 53.457031 58.890625 53.457031 Z M 58.890625 53.457031 " fill-opacity="1" fill-rule="nonzero"/></g></g></g><g clip-path="url(#12cd1e5426)"><g clip-path="url(#7e7bdfda9e)"><g clip-path="url(#8e4f67570b)"><path fill="#231f20" d="M 30.1875 58.113281 L 7.085938 58.113281 L 7.085938 51.941406 L 30.1875 51.941406 Z M 7.976562 57.226562 L 29.296875 57.226562 L 29.296875 52.828125 L 7.976562 52.828125 Z M 7.976562 57.226562 " fill-opacity="1" fill-rule="nonzero"/></g></g></g><g clip-path="url(#acae73d3b9)"><g clip-path="url(#70bbb9dd10)"><g clip-path="url(#8a05f34e44)"><path fill="#231f20" d="M 36.65625 128.578125 C 32.984375 128.578125 29.414062 127.863281 26.0625 126.441406 C 22.820312 125.082031 19.910156 123.128906 17.410156 120.632812 C 14.914062 118.136719 12.953125 115.25 11.574219 112.019531 C 10.148438 108.6875 9.429688 105.132812 9.429688 101.476562 C 9.429688 97.816406 10.148438 94.265625 11.574219 90.929688 C 12.941406 87.703125 14.902344 84.804688 17.410156 82.320312 C 19.910156 79.832031 22.820312 77.878906 26.0625 76.507812 C 29.421875 75.097656 32.984375 74.375 36.65625 74.375 C 40.332031 74.375 43.902344 75.089844 47.253906 76.507812 C 50.496094 77.871094 53.40625 79.824219 55.90625 82.320312 C 58.402344 84.804688 60.363281 87.703125 61.742188 90.929688 C 63.160156 94.273438 63.886719 97.816406 63.886719 101.476562 C 63.886719 105.132812 63.167969 108.6875 61.742188 112.019531 C 60.375 115.25 58.414062 118.144531 55.90625 120.632812 C 53.40625 123.117188 50.496094 125.070312 47.253906 126.441406 C 43.894531 127.863281 40.332031 128.578125 36.65625 128.578125 Z M 36.65625 77.03125 C 23.117188 77.03125 12.101562 87.996094 12.101562 101.476562 C 12.101562 114.953125 23.117188 125.917969 36.65625 125.917969 C 50.199219 125.917969 61.214844 114.953125 61.214844 101.476562 C 61.214844 88.007812 50.199219 77.03125 36.65625 77.03125 Z M 36.65625 77.03125 " fill-opacity="1" fill-rule="nonzero"/></g></g></g><g clip-path="url(#e4f59b94e3)"><g clip-path="url(#92dcf21f36)"><g clip-path="url(#b58e29466a)"><path fill="#231f20" d="M 30.617188 89.113281 C 29.679688 88.644531 28.542969 89.027344 28.074219 89.960938 C 27.277344 91.550781 25.929688 94.425781 25.929688 95.828125 L 25.929688 106.34375 C 25.929688 106.726562 25.832031 107.117188 25.652344 107.457031 C 24.0625 110.488281 23.125 112.515625 22.875 113.515625 C 22.617188 114.527344 23.238281 115.554688 24.253906 115.8125 C 24.40625 115.851562 24.5625 115.871094 24.714844 115.871094 C 25.566406 115.871094 26.339844 115.296875 26.550781 114.441406 C 26.675781 113.953125 27.394531 112.289062 29 109.21875 C 29.460938 108.34375 29.710938 107.351562 29.710938 106.363281 L 29.710938 95.882812 C 29.785156 95.339844 30.589844 93.386719 31.453125 91.675781 C 31.941406 90.710938 31.558594 89.578125 30.617188 89.113281 Z M 30.617188 89.113281 " fill-opacity="1" fill-rule="nonzero"/></g></g></g><g clip-path="url(#6cc146ea71)"><g clip-path="url(#56addad9b4)"><g clip-path="url(#bf459362e2)"><path fill="#231f20" d="M 40.027344 89.113281 C 39.089844 88.644531 37.949219 89.027344 37.480469 89.960938 C 36.6875 91.550781 35.335938 94.425781 35.335938 95.828125 L 35.335938 106.34375 C 35.335938 106.726562 35.242188 107.117188 35.058594 107.457031 C 33.472656 110.488281 32.53125 112.527344 32.285156 113.515625 C 32.027344 114.527344 32.648438 115.554688 33.664062 115.8125 C 33.816406 115.851562 33.96875 115.871094 34.121094 115.871094 C 34.972656 115.871094 35.75 115.296875 35.960938 114.441406 C 36.082031 113.953125 36.800781 112.289062 38.410156 109.21875 C 38.867188 108.34375 39.117188 107.351562 39.117188 106.363281 L 39.117188 95.882812 C 39.195312 95.339844 40 93.386719 40.859375 91.675781 C 41.347656 90.710938 40.964844 89.578125 40.027344 89.113281 Z M 40.027344 89.113281 " fill-opacity="1" fill-rule="nonzero"/></g></g></g><g clip-path="url(#6807b7ec7c)"><g clip-path="url(#8acd6cabeb)"><g clip-path="url(#fb88464c1a)"><path fill="#231f20" d="M 49.433594 89.113281 C 48.496094 88.644531 47.359375 89.027344 46.890625 89.960938 C 46.09375 91.550781 44.746094 94.425781 44.746094 95.828125 L 44.746094 106.34375 C 44.746094 106.726562 44.648438 107.117188 44.46875 107.457031 C 42.878906 110.488281 41.941406 112.515625 41.691406 113.515625 C 41.433594 114.527344 42.054688 115.554688 43.070312 115.8125 C 43.222656 115.851562 43.375 115.871094 43.53125 115.871094 C 44.382812 115.871094 45.15625 115.296875 45.367188 114.441406 C 45.492188 113.953125 46.210938 112.289062 47.816406 109.21875 C 48.277344 108.34375 48.527344 107.351562 48.527344 106.363281 L 48.527344 95.882812 C 48.601562 95.339844 49.40625 93.386719 50.265625 91.675781 C 50.746094 90.710938 50.371094 89.578125 49.433594 89.113281 Z M 49.433594 89.113281 " fill-opacity="1" fill-rule="nonzero"/></g></g></g><g clip-path="url(#ba68bde87a)"><g clip-path="url(#bf024483c5)"><g clip-path="url(#6eb1b65e0f)"><path stroke-linecap="butt" transform="matrix(0.75, 0, 0, 0.75, 0.0000045, 47.82281)" fill="none" stroke-linejoin="miter" d="M -0.000006 13.001879 L -0.000006 107.173754 C -0.000006 114.350837 5.817703 120.173754 12.999996 120.173754 L 82.687505 120.173754 C 89.869797 120.173754 95.687506 114.350837 95.687506 107.173754 L 95.687506 13.001879 C 95.687506 5.819587 89.869797 0.00187879 82.687505 0.00187879 L 12.999996 0.00187879 C 5.817703 0.00187879 -0.000006 5.819587 -0.000006 13.001879 Z M -0.000006 13.001879 " stroke="#1a2546" stroke-width="10" stroke-opacity="1" stroke-miterlimit="4"/></g></g></g><g clip-path="url(#f3d9ed2c27)"><g clip-path="url(#5cfa408478)"><g clip-path="url(#f8ad5c178e)"><path fill="#231f20" d="M 329.1875 49.230469 C 327.515625 49.230469 326.152344 50.589844 326.152344 52.257812 L 326.152344 133.398438 C 326.152344 135.066406 327.515625 136.425781 329.1875 136.425781 L 370.578125 136.425781 C 372.25 136.425781 373.613281 135.066406 373.613281 133.398438 L 373.613281 52.257812 C 373.613281 50.589844 372.25 49.230469 370.578125 49.230469 Z M 370.578125 137.820312 L 329.1875 137.820312 C 326.746094 137.820312 324.757812 135.835938 324.757812 133.398438 L 324.757812 52.257812 C 324.757812 49.820312 326.746094 47.835938 329.1875 47.835938 L 370.578125 47.835938 C 373.019531 47.835938 375.007812 49.820312 375.007812 52.257812 L 375.007812 133.398438 C 375.007812 135.835938 373.019531 137.820312 370.578125 137.820312 " fill-opacity="1" fill-rule="nonzero"/></g></g></g><g clip-path="url(#dba7b190b4)"><g clip-path="url(#3fdd61bcdc)"><g clip-path="url(#e4983e3f05)"><path fill="#231f20" d="M 374.308594 79.972656 L 325.457031 79.972656 C 325.070312 79.972656 324.757812 79.660156 324.757812 79.277344 C 324.757812 78.890625 325.070312 78.578125 325.457031 78.578125 L 374.308594 78.578125 C 374.695312 78.578125 375.007812 78.890625 375.007812 79.277344 C 375.007812 79.660156 374.695312 79.972656 374.308594 79.972656 " fill-opacity="1" fill-rule="nonzero"/></g></g></g><g clip-path="url(#4280d6b40e)"><g clip-path="url(#187fc70cbb)"><g clip-path="url(#7228f580d7)"><path fill="#231f20" d="M 330.390625 64.296875 C 329.8125 64.296875 329.34375 64.765625 329.34375 65.339844 L 329.34375 74.921875 C 329.34375 75.5 329.8125 75.96875 330.390625 75.96875 C 330.96875 75.96875 331.4375 75.5 331.4375 74.921875 L 331.4375 65.339844 C 331.4375 64.765625 330.96875 64.296875 330.390625 64.296875 Z M 330.390625 77.359375 C 329.042969 77.359375 327.949219 76.265625 327.949219 74.921875 L 327.949219 65.339844 C 327.949219 63.996094 329.042969 62.902344 330.390625 62.902344 C 331.738281 62.902344 332.832031 63.996094 332.832031 65.339844 L 332.832031 74.921875 C 332.832031 76.265625 331.738281 77.359375 330.390625 77.359375 " fill-opacity="1" fill-rule="nonzero"/></g></g></g><g clip-path="url(#7a50571000)"><g clip-path="url(#10a2548533)"><g clip-path="url(#5c49e21e92)"><path fill="#231f20" d="M 330.390625 82.402344 C 329.8125 82.402344 329.34375 82.871094 329.34375 83.445312 L 329.34375 98.136719 C 329.34375 98.714844 329.8125 99.179688 330.390625 99.179688 C 330.96875 99.179688 331.4375 98.714844 331.4375 98.136719 L 331.4375 83.445312 C 331.4375 82.871094 330.96875 82.402344 330.390625 82.402344 Z M 330.390625 100.574219 C 329.042969 100.574219 327.949219 99.480469 327.949219 98.136719 L 327.949219 83.445312 C 327.949219 82.101562 329.042969 81.007812 330.390625 81.007812 C 331.738281 81.007812 332.832031 82.101562 332.832031 83.445312 L 332.832031 98.136719 C 332.832031 99.480469 331.738281 100.574219 330.390625 100.574219 " fill-opacity="1" fill-rule="nonzero"/></g></g></g><g clip-path="url(#fa2f825b5f)"><g clip-path="url(#d1f71befeb)"><g clip-path="url(#3a117f2803)"><path fill="#231f20" d="M 374.308594 133.972656 L 325.457031 133.972656 C 325.070312 133.972656 324.757812 133.660156 324.757812 133.273438 C 324.757812 132.890625 325.070312 132.578125 325.457031 132.578125 L 374.308594 132.578125 C 374.695312 132.578125 375.007812 132.890625 375.007812 133.273438 C 375.007812 133.660156 374.695312 133.972656 374.308594 133.972656 " fill-opacity="1" fill-rule="nonzero"/></g></g></g><g clip-path="url(#587973417e)"><g clip-path="url(#1e00db552d)"><g clip-path="url(#f53cdb38fe)"><path stroke-linecap="butt" transform="matrix(0.75, 0, 0, 0.75, 324.75095, 47.82281)" fill="none" stroke-linejoin="miter" d="M -0.00126717 13.001879 L -0.00126717 107.173754 C -0.00126717 114.350837 5.82165 120.173754 12.998734 120.173754 L 53.98832 120.173754 C 61.165404 120.173754 66.983112 114.350837 66.983112 107.173754 L 66.983112 13.001879 C 66.983112 5.819587 61.165404 0.00187879 53.98832 0.00187879 L 12.998734 0.00187879 C 5.82165 0.00187879 -0.00126717 5.819587 -0.00126717 13.001879 Z M -0.00126717 13.001879 " stroke="#1a2546" stroke-width="10" stroke-opacity="1" stroke-miterlimit="4"/></g></g></g><g fill="#1a2546" fill-opacity="1"><g transform="translate(3.885937, 319.409629)"><g><path d="M 1.859375 0 L 1.859375 -19.15625 L 6.859375 -19.15625 L 6.859375 -4.265625 L 14.96875 -4.265625 L 14.96875 0 Z M 1.859375 0 "/></g></g></g><g fill="#1a2546" fill-opacity="1"><g transform="translate(19.265033, 319.409629)"><g><path d="M 8.53125 -14.96875 C 10.570312 -14.96875 12.15625 -14.5 13.28125 -13.5625 C 14.40625 -12.625 14.976562 -11.3125 15 -9.625 L 15 0 L 10.21875 0 L 10.21875 -1.671875 C 9.238281 -0.410156 7.753906 0.21875 5.765625 0.21875 C 4.203125 0.21875 2.96875 -0.203125 2.0625 -1.046875 C 1.15625 -1.898438 0.703125 -3.019531 0.703125 -4.40625 C 0.703125 -5.800781 1.191406 -6.890625 2.171875 -7.671875 C 3.148438 -8.460938 4.550781 -8.863281 6.375 -8.875 L 10.21875 -8.875 L 10.21875 -9.046875 C 10.21875 -9.753906 9.972656 -10.300781 9.484375 -10.6875 C 9.003906 -11.070312 8.3125 -11.265625 7.40625 -11.265625 C 6.789062 -11.265625 6.09375 -11.160156 5.3125 -10.953125 C 4.539062 -10.753906 3.765625 -10.460938 2.984375 -10.078125 L 1.640625 -13.359375 C 2.835938 -13.910156 3.988281 -14.316406 5.09375 -14.578125 C 6.195312 -14.835938 7.34375 -14.96875 8.53125 -14.96875 Z M 7.265625 -3.09375 C 7.992188 -3.09375 8.628906 -3.269531 9.171875 -3.625 C 9.722656 -3.976562 10.070312 -4.4375 10.21875 -5 L 10.21875 -6.28125 L 7.328125 -6.28125 C 5.960938 -6.28125 5.28125 -5.769531 5.28125 -4.75 C 5.28125 -4.238281 5.457031 -3.832031 5.8125 -3.53125 C 6.164062 -3.238281 6.648438 -3.09375 7.265625 -3.09375 Z M 7.265625 -3.09375 "/></g></g></g><g fill="#1a2546" fill-opacity="1"><g transform="translate(35.682143, 319.409629)"><g><path d="M 1.171875 -11.046875 L 1.171875 -14.78125 L 14.125 -14.75 L 14.125 -11.8125 L 7.015625 -3.71875 L 14.40625 -3.71875 L 14.40625 0 L 0.921875 0 L 0.921875 -2.953125 L 8.03125 -11.046875 Z M 1.171875 -11.046875 "/></g></g></g><g fill="#1a2546" fill-opacity="1"><g transform="translate(50.842703, 319.409629)"><g/></g></g><g fill="#1a2546" fill-opacity="1"><g transform="translate(58.218111, 319.409629)"><g><path d="M 21.265625 0 L 15.9375 0 L 14.625 -3.390625 L 6.34375 -3.390625 L 5 0 L -0.140625 0 L 8.09375 -19.15625 L 13.234375 -19.15625 Z M 10.515625 -14.046875 L 7.84375 -7.21875 L 13.140625 -7.21875 Z M 10.515625 -14.046875 "/></g></g></g><g fill="#1a2546" fill-opacity="1"><g transform="translate(79.333637, 319.409629)"><g><path d="M 11.203125 -14.953125 C 12.566406 -14.953125 13.769531 -14.632812 14.8125 -14 C 15.851562 -13.375 16.660156 -12.484375 17.234375 -11.328125 C 17.804688 -10.171875 18.09375 -8.835938 18.09375 -7.328125 C 18.09375 -5.828125 17.8125 -4.507812 17.25 -3.375 C 16.695312 -2.25 15.90625 -1.378906 14.875 -0.765625 C 13.851562 -0.148438 12.664062 0.15625 11.3125 0.15625 C 10.382812 0.15625 9.539062 -0.0195312 8.78125 -0.375 C 8.03125 -0.726562 7.390625 -1.238281 6.859375 -1.90625 L 6.859375 5.296875 L 2 5.296875 L 2 -14.78125 L 6.859375 -14.78125 L 6.859375 -12.875 C 7.929688 -14.257812 9.378906 -14.953125 11.203125 -14.953125 Z M 10 -3.765625 C 10.945312 -3.765625 11.71875 -4.101562 12.3125 -4.78125 C 12.90625 -5.457031 13.203125 -6.34375 13.203125 -7.4375 C 13.203125 -8.53125 12.90625 -9.414062 12.3125 -10.09375 C 11.71875 -10.78125 10.945312 -11.125 10 -11.125 C 9.070312 -11.125 8.316406 -10.78125 7.734375 -10.09375 C 7.148438 -9.414062 6.859375 -8.53125 6.859375 -7.4375 C 6.859375 -6.34375 7.148438 -5.457031 7.734375 -4.78125 C 8.316406 -4.101562 9.070312 -3.765625 10 -3.765625 Z M 10 -3.765625 "/></g></g></g><g fill="#1a2546" fill-opacity="1"><g transform="translate(98.072638, 319.409629)"><g><path d="M 11.203125 -14.953125 C 12.566406 -14.953125 13.769531 -14.632812 14.8125 -14 C 15.851562 -13.375 16.660156 -12.484375 17.234375 -11.328125 C 17.804688 -10.171875 18.09375 -8.835938 18.09375 -7.328125 C 18.09375 -5.828125 17.8125 -4.507812 17.25 -3.375 C 16.695312 -2.25 15.90625 -1.378906 14.875 -0.765625 C 13.851562 -0.148438 12.664062 0.15625 11.3125 0.15625 C 10.382812 0.15625 9.539062 -0.0195312 8.78125 -0.375 C 8.03125 -0.726562 7.390625 -1.238281 6.859375 -1.90625 L 6.859375 5.296875 L 2 5.296875 L 2 -14.78125 L 6.859375 -14.78125 L 6.859375 -12.875 C 7.929688 -14.257812 9.378906 -14.953125 11.203125 -14.953125 Z M 10 -3.765625 C 10.945312 -3.765625 11.71875 -4.101562 12.3125 -4.78125 C 12.90625 -5.457031 13.203125 -6.34375 13.203125 -7.4375 C 13.203125 -8.53125 12.90625 -9.414062 12.3125 -10.09375 C 11.71875 -10.78125 10.945312 -11.125 10 -11.125 C 9.070312 -11.125 8.316406 -10.78125 7.734375 -10.09375 C 7.148438 -9.414062 6.859375 -8.53125 6.859375 -7.4375 C 6.859375 -6.34375 7.148438 -5.457031 7.734375 -4.78125 C 8.316406 -4.101562 9.070312 -3.765625 10 -3.765625 Z M 10 -3.765625 "/></g></g></g><g fill="#1a2546" fill-opacity="1"><g transform="translate(116.811638, 319.409629)"><g><path d="M 2 0 L 2 -20.28125 L 6.859375 -20.28125 L 6.859375 0 Z M 2 0 "/></g></g></g><g fill="#1a2546" fill-opacity="1"><g transform="translate(125.662132, 319.409629)"><g><path d="M 1.859375 0 L 1.859375 -14.78125 L 6.703125 -14.78125 L 6.703125 0 Z M 4.296875 -21.59375 C 5.035156 -21.59375 5.644531 -21.347656 6.125 -20.859375 C 6.613281 -20.378906 6.859375 -19.757812 6.859375 -19 C 6.859375 -18.25 6.613281 -17.625 6.125 -17.125 C 5.644531 -16.632812 5.035156 -16.390625 4.296875 -16.390625 C 3.546875 -16.390625 2.925781 -16.632812 2.4375 -17.125 C 1.957031 -17.625 1.71875 -18.25 1.71875 -19 C 1.71875 -19.757812 1.957031 -20.378906 2.4375 -20.859375 C 2.925781 -21.347656 3.546875 -21.59375 4.296875 -21.59375 Z M 4.296875 -21.59375 "/></g></g></g><g fill="#1a2546" fill-opacity="1"><g transform="translate(134.212139, 319.409629)"><g><path d="M 8.53125 -14.96875 C 10.570312 -14.96875 12.15625 -14.5 13.28125 -13.5625 C 14.40625 -12.625 14.976562 -11.3125 15 -9.625 L 15 0 L 10.21875 0 L 10.21875 -1.671875 C 9.238281 -0.410156 7.753906 0.21875 5.765625 0.21875 C 4.203125 0.21875 2.96875 -0.203125 2.0625 -1.046875 C 1.15625 -1.898438 0.703125 -3.019531 0.703125 -4.40625 C 0.703125 -5.800781 1.191406 -6.890625 2.171875 -7.671875 C 3.148438 -8.460938 4.550781 -8.863281 6.375 -8.875 L 10.21875 -8.875 L 10.21875 -9.046875 C 10.21875 -9.753906 9.972656 -10.300781 9.484375 -10.6875 C 9.003906 -11.070312 8.3125 -11.265625 7.40625 -11.265625 C 6.789062 -11.265625 6.09375 -11.160156 5.3125 -10.953125 C 4.539062 -10.753906 3.765625 -10.460938 2.984375 -10.078125 L 1.640625 -13.359375 C 2.835938 -13.910156 3.988281 -14.316406 5.09375 -14.578125 C 6.195312 -14.835938 7.34375 -14.96875 8.53125 -14.96875 Z M 7.265625 -3.09375 C 7.992188 -3.09375 8.628906 -3.269531 9.171875 -3.625 C 9.722656 -3.976562 10.070312 -4.4375 10.21875 -5 L 10.21875 -6.28125 L 7.328125 -6.28125 C 5.960938 -6.28125 5.28125 -5.769531 5.28125 -4.75 C 5.28125 -4.238281 5.457031 -3.832031 5.8125 -3.53125 C 6.164062 -3.238281 6.648438 -3.09375 7.265625 -3.09375 Z M 7.265625 -3.09375 "/></g></g></g><g fill="#1a2546" fill-opacity="1"><g transform="translate(150.629248, 319.409629)"><g><path d="M 11.609375 -14.96875 C 13.234375 -14.96875 14.53125 -14.457031 15.5 -13.4375 C 16.476562 -12.425781 16.96875 -11.050781 16.96875 -9.3125 L 16.96875 0 L 12.140625 0 L 12.140625 -7.921875 C 12.140625 -8.765625 11.910156 -9.425781 11.453125 -9.90625 C 10.992188 -10.382812 10.382812 -10.625 9.625 -10.625 C 8.820312 -10.613281 8.160156 -10.351562 7.640625 -9.84375 C 7.117188 -9.332031 6.8125 -8.65625 6.71875 -7.8125 L 6.71875 0 L 1.859375 0 L 1.859375 -14.78125 L 6.71875 -14.78125 L 6.71875 -12.375 C 7.25 -13.226562 7.925781 -13.875 8.75 -14.3125 C 9.582031 -14.75 10.535156 -14.96875 11.609375 -14.96875 Z M 11.609375 -14.96875 "/></g></g></g><g fill="#1a2546" fill-opacity="1"><g transform="translate(169.040456, 319.409629)"><g><path d="M 11.390625 -9.40625 C 10.703125 -10.425781 9.738281 -10.9375 8.5 -10.9375 C 7.625 -10.9375 6.910156 -10.601562 6.359375 -9.9375 C 5.816406 -9.269531 5.546875 -8.40625 5.546875 -7.34375 C 5.546875 -6.269531 5.816406 -5.40625 6.359375 -4.75 C 6.910156 -4.09375 7.625 -3.765625 8.5 -3.765625 C 9.84375 -3.765625 10.804688 -4.320312 11.390625 -5.4375 L 14.96875 -3.390625 C 14.382812 -2.253906 13.507812 -1.378906 12.34375 -0.765625 C 11.1875 -0.148438 9.820312 0.15625 8.25 0.15625 C 6.738281 0.15625 5.410156 -0.148438 4.265625 -0.765625 C 3.117188 -1.378906 2.226562 -2.25 1.59375 -3.375 C 0.96875 -4.507812 0.65625 -5.828125 0.65625 -7.328125 C 0.65625 -8.835938 0.972656 -10.171875 1.609375 -11.328125 C 2.242188 -12.484375 3.140625 -13.375 4.296875 -14 C 5.460938 -14.632812 6.800781 -14.953125 8.3125 -14.953125 C 9.78125 -14.953125 11.085938 -14.644531 12.234375 -14.03125 C 13.390625 -13.425781 14.285156 -12.566406 14.921875 -11.453125 Z M 11.390625 -9.40625 "/></g></g></g><g fill="#1a2546" fill-opacity="1"><g transform="translate(184.392235, 319.409629)"><g><path d="M 8.359375 -14.953125 C 10.765625 -14.953125 12.613281 -14.238281 13.90625 -12.8125 C 15.195312 -11.394531 15.84375 -9.445312 15.84375 -6.96875 C 15.84375 -6.582031 15.835938 -6.289062 15.828125 -6.09375 L 5.546875 -6.09375 C 5.785156 -5.257812 6.195312 -4.617188 6.78125 -4.171875 C 7.363281 -3.722656 8.070312 -3.5 8.90625 -3.5 C 9.539062 -3.5 10.15625 -3.625 10.75 -3.875 C 11.34375 -4.132812 11.882812 -4.507812 12.375 -5 L 14.921875 -2.453125 C 14.148438 -1.597656 13.222656 -0.945312 12.140625 -0.5 C 11.054688 -0.0625 9.832031 0.15625 8.46875 0.15625 C 6.882812 0.15625 5.5 -0.148438 4.3125 -0.765625 C 3.132812 -1.378906 2.226562 -2.25 1.59375 -3.375 C 0.96875 -4.507812 0.65625 -5.828125 0.65625 -7.328125 C 0.65625 -8.835938 0.972656 -10.171875 1.609375 -11.328125 C 2.242188 -12.484375 3.144531 -13.375 4.3125 -14 C 5.476562 -14.632812 6.828125 -14.953125 8.359375 -14.953125 Z M 11.125 -8.6875 C 11.125 -9.539062 10.875 -10.226562 10.375 -10.75 C 9.875 -11.269531 9.210938 -11.53125 8.390625 -11.53125 C 7.617188 -11.53125 6.972656 -11.273438 6.453125 -10.765625 C 5.941406 -10.253906 5.601562 -9.5625 5.4375 -8.6875 Z M 11.125 -8.6875 "/></g></g></g><g fill="#1a2546" fill-opacity="1"><g transform="translate(200.863967, 319.409629)"><g><path d="M 11.71875 -10.109375 C 9.8125 -11.109375 8.242188 -11.609375 7.015625 -11.609375 C 6.597656 -11.609375 6.257812 -11.53125 6 -11.375 C 5.75 -11.226562 5.625 -11 5.625 -10.6875 C 5.625 -10.351562 5.820312 -10.085938 6.21875 -9.890625 C 6.625 -9.691406 7.265625 -9.472656 8.140625 -9.234375 C 9.203125 -8.921875 10.082031 -8.613281 10.78125 -8.3125 C 11.476562 -8.019531 12.082031 -7.566406 12.59375 -6.953125 C 13.101562 -6.347656 13.359375 -5.550781 13.359375 -4.5625 C 13.359375 -3.070312 12.78125 -1.898438 11.625 -1.046875 C 10.46875 -0.203125 8.960938 0.21875 7.109375 0.21875 C 5.847656 0.21875 4.644531 0.0390625 3.5 -0.3125 C 2.351562 -0.664062 1.332031 -1.191406 0.4375 -1.890625 L 1.96875 -5.03125 C 2.800781 -4.445312 3.675781 -3.992188 4.59375 -3.671875 C 5.519531 -3.359375 6.394531 -3.203125 7.21875 -3.203125 C 7.6875 -3.203125 8.0625 -3.273438 8.34375 -3.421875 C 8.625 -3.578125 8.765625 -3.800781 8.765625 -4.09375 C 8.765625 -4.457031 8.5625 -4.738281 8.15625 -4.9375 C 7.75 -5.144531 7.109375 -5.367188 6.234375 -5.609375 C 5.191406 -5.910156 4.332031 -6.210938 3.65625 -6.515625 C 2.988281 -6.816406 2.398438 -7.265625 1.890625 -7.859375 C 1.390625 -8.460938 1.140625 -9.25 1.140625 -10.21875 C 1.140625 -11.71875 1.703125 -12.890625 2.828125 -13.734375 C 3.960938 -14.578125 5.425781 -15 7.21875 -15 C 8.289062 -15 9.347656 -14.851562 10.390625 -14.5625 C 11.441406 -14.269531 12.429688 -13.84375 13.359375 -13.28125 Z M 11.71875 -10.109375 "/></g></g></g><g fill="#1a2546" fill-opacity="1"><g transform="translate(214.986525, 319.409629)"><g/></g></g><g fill="#1a2546" fill-opacity="1"><g transform="translate(222.361921, 319.409629)"><g><path d="M 19.015625 0 L 13.359375 0 L 10.578125 -5.296875 L 6.859375 -5.296875 L 6.859375 0 L 1.859375 0 L 1.859375 -19.15625 L 10.46875 -19.15625 C 13 -19.15625 14.960938 -18.566406 16.359375 -17.390625 C 17.753906 -16.210938 18.453125 -14.5625 18.453125 -12.4375 C 18.453125 -11 18.160156 -9.753906 17.578125 -8.703125 C 16.992188 -7.648438 16.144531 -6.835938 15.03125 -6.265625 Z M 6.859375 -15.171875 L 6.859375 -9.296875 L 10.5 -9.296875 C 11.519531 -9.296875 12.304688 -9.550781 12.859375 -10.0625 C 13.410156 -10.570312 13.6875 -11.304688 13.6875 -12.265625 C 13.6875 -13.191406 13.410156 -13.90625 12.859375 -14.40625 C 12.304688 -14.914062 11.519531 -15.171875 10.5 -15.171875 Z M 6.859375 -15.171875 "/></g></g></g><g fill="#1a2546" fill-opacity="1"><g transform="translate(242.138959, 319.409629)"><g><path d="M 8.359375 -14.953125 C 10.765625 -14.953125 12.613281 -14.238281 13.90625 -12.8125 C 15.195312 -11.394531 15.84375 -9.445312 15.84375 -6.96875 C 15.84375 -6.582031 15.835938 -6.289062 15.828125 -6.09375 L 5.546875 -6.09375 C 5.785156 -5.257812 6.195312 -4.617188 6.78125 -4.171875 C 7.363281 -3.722656 8.070312 -3.5 8.90625 -3.5 C 9.539062 -3.5 10.15625 -3.625 10.75 -3.875 C 11.34375 -4.132812 11.882812 -4.507812 12.375 -5 L 14.921875 -2.453125 C 14.148438 -1.597656 13.222656 -0.945312 12.140625 -0.5 C 11.054688 -0.0625 9.832031 0.15625 8.46875 0.15625 C 6.882812 0.15625 5.5 -0.148438 4.3125 -0.765625 C 3.132812 -1.378906 2.226562 -2.25 1.59375 -3.375 C 0.96875 -4.507812 0.65625 -5.828125 0.65625 -7.328125 C 0.65625 -8.835938 0.972656 -10.171875 1.609375 -11.328125 C 2.242188 -12.484375 3.144531 -13.375 4.3125 -14 C 5.476562 -14.632812 6.828125 -14.953125 8.359375 -14.953125 Z M 11.125 -8.6875 C 11.125 -9.539062 10.875 -10.226562 10.375 -10.75 C 9.875 -11.269531 9.210938 -11.53125 8.390625 -11.53125 C 7.617188 -11.53125 6.972656 -11.273438 6.453125 -10.765625 C 5.941406 -10.253906 5.601562 -9.5625 5.4375 -8.6875 Z M 11.125 -8.6875 "/></g></g></g><g fill="#1a2546" fill-opacity="1"><g transform="translate(258.610713, 319.409629)"><g><path d="M 11.203125 -14.953125 C 12.566406 -14.953125 13.769531 -14.632812 14.8125 -14 C 15.851562 -13.375 16.660156 -12.484375 17.234375 -11.328125 C 17.804688 -10.171875 18.09375 -8.835938 18.09375 -7.328125 C 18.09375 -5.828125 17.8125 -4.507812 17.25 -3.375 C 16.695312 -2.25 15.90625 -1.378906 14.875 -0.765625 C 13.851562 -0.148438 12.664062 0.15625 11.3125 0.15625 C 10.382812 0.15625 9.539062 -0.0195312 8.78125 -0.375 C 8.03125 -0.726562 7.390625 -1.238281 6.859375 -1.90625 L 6.859375 5.296875 L 2 5.296875 L 2 -14.78125 L 6.859375 -14.78125 L 6.859375 -12.875 C 7.929688 -14.257812 9.378906 -14.953125 11.203125 -14.953125 Z M 10 -3.765625 C 10.945312 -3.765625 11.71875 -4.101562 12.3125 -4.78125 C 12.90625 -5.457031 13.203125 -6.34375 13.203125 -7.4375 C 13.203125 -8.53125 12.90625 -9.414062 12.3125 -10.09375 C 11.71875 -10.78125 10.945312 -11.125 10 -11.125 C 9.070312 -11.125 8.316406 -10.78125 7.734375 -10.09375 C 7.148438 -9.414062 6.859375 -8.53125 6.859375 -7.4375 C 6.859375 -6.34375 7.148438 -5.457031 7.734375 -4.78125 C 8.316406 -4.101562 9.070312 -3.765625 10 -3.765625 Z M 10 -3.765625 "/></g></g></g><g fill="#1a2546" fill-opacity="1"><g transform="translate(277.349726, 319.409629)"><g><path d="M 8.53125 -14.96875 C 10.570312 -14.96875 12.15625 -14.5 13.28125 -13.5625 C 14.40625 -12.625 14.976562 -11.3125 15 -9.625 L 15 0 L 10.21875 0 L 10.21875 -1.671875 C 9.238281 -0.410156 7.753906 0.21875 5.765625 0.21875 C 4.203125 0.21875 2.96875 -0.203125 2.0625 -1.046875 C 1.15625 -1.898438 0.703125 -3.019531 0.703125 -4.40625 C 0.703125 -5.800781 1.191406 -6.890625 2.171875 -7.671875 C 3.148438 -8.460938 4.550781 -8.863281 6.375 -8.875 L 10.21875 -8.875 L 10.21875 -9.046875 C 10.21875 -9.753906 9.972656 -10.300781 9.484375 -10.6875 C 9.003906 -11.070312 8.3125 -11.265625 7.40625 -11.265625 C 6.789062 -11.265625 6.09375 -11.160156 5.3125 -10.953125 C 4.539062 -10.753906 3.765625 -10.460938 2.984375 -10.078125 L 1.640625 -13.359375 C 2.835938 -13.910156 3.988281 -14.316406 5.09375 -14.578125 C 6.195312 -14.835938 7.34375 -14.96875 8.53125 -14.96875 Z M 7.265625 -3.09375 C 7.992188 -3.09375 8.628906 -3.269531 9.171875 -3.625 C 9.722656 -3.976562 10.070312 -4.4375 10.21875 -5 L 10.21875 -6.28125 L 7.328125 -6.28125 C 5.960938 -6.28125 5.28125 -5.769531 5.28125 -4.75 C 5.28125 -4.238281 5.457031 -3.832031 5.8125 -3.53125 C 6.164062 -3.238281 6.648438 -3.09375 7.265625 -3.09375 Z M 7.265625 -3.09375 "/></g></g></g><g fill="#1a2546" fill-opacity="1"><g transform="translate(293.766824, 319.409629)"><g><path d="M 1.859375 0 L 1.859375 -14.78125 L 6.703125 -14.78125 L 6.703125 0 Z M 4.296875 -21.59375 C 5.035156 -21.59375 5.644531 -21.347656 6.125 -20.859375 C 6.613281 -20.378906 6.859375 -19.757812 6.859375 -19 C 6.859375 -18.25 6.613281 -17.625 6.125 -17.125 C 5.644531 -16.632812 5.035156 -16.390625 4.296875 -16.390625 C 3.546875 -16.390625 2.925781 -16.632812 2.4375 -17.125 C 1.957031 -17.625 1.71875 -18.25 1.71875 -19 C 1.71875 -19.757812 1.957031 -20.378906 2.4375 -20.859375 C 2.925781 -21.347656 3.546875 -21.59375 4.296875 -21.59375 Z M 4.296875 -21.59375 "/></g></g></g><g fill="#1a2546" fill-opacity="1"><g transform="translate(302.316842, 319.409629)"><g><path d="M 6.71875 -12.328125 C 7.226562 -13.179688 7.890625 -13.832031 8.703125 -14.28125 C 9.515625 -14.738281 10.441406 -14.96875 11.484375 -14.96875 L 11.484375 -10.515625 C 11.316406 -10.535156 11.066406 -10.546875 10.734375 -10.546875 C 9.585938 -10.546875 8.660156 -10.273438 7.953125 -9.734375 C 7.242188 -9.203125 6.832031 -8.472656 6.71875 -7.546875 L 6.71875 0 L 1.859375 0 L 1.859375 -14.78125 L 6.71875 -14.78125 Z M 6.71875 -12.328125 "/></g></g></g><g fill="#1a2546" fill-opacity="1"><g transform="translate(314.062874, 319.409629)"><g/></g></g><g fill="#1a2546" fill-opacity="1"><g transform="translate(321.43827, 319.409629)"><g><path d="M 1.859375 0 L 1.859375 -19.15625 L 6.859375 -19.15625 L 6.859375 -4.265625 L 14.96875 -4.265625 L 14.96875 0 Z M 1.859375 0 "/></g></g></g><g fill="#1a2546" fill-opacity="1"><g transform="translate(336.817366, 319.409629)"><g><path d="M 1.859375 0 L 1.859375 -19.15625 L 6.859375 -19.15625 L 6.859375 -4.265625 L 14.96875 -4.265625 L 14.96875 0 Z M 1.859375 0 "/></g></g></g><g fill="#1a2546" fill-opacity="1"><g transform="translate(352.196462, 319.409629)"><g><path d="M 15.71875 -12.65625 C 15.09375 -13.4375 14.351562 -14.054688 13.5 -14.515625 C 12.644531 -14.984375 11.796875 -15.21875 10.953125 -15.21875 C 9.992188 -15.21875 9.113281 -14.972656 8.3125 -14.484375 C 7.519531 -14.003906 6.894531 -13.34375 6.4375 -12.5 C 5.988281 -11.65625 5.765625 -10.710938 5.765625 -9.671875 C 5.765625 -8.628906 5.988281 -7.6875 6.4375 -6.84375 C 6.894531 -6 7.519531 -5.332031 8.3125 -4.84375 C 9.113281 -4.363281 9.992188 -4.125 10.953125 -4.125 C 11.742188 -4.125 12.566406 -4.320312 13.421875 -4.71875 C 14.273438 -5.125 15.039062 -5.675781 15.71875 -6.375 L 18.640625 -3.21875 C 17.597656 -2.125 16.363281 -1.253906 14.9375 -0.609375 C 13.507812 0.0351562 12.09375 0.359375 10.6875 0.359375 C 8.789062 0.359375 7.078125 -0.078125 5.546875 -0.953125 C 4.015625 -1.828125 2.8125 -3.019531 1.9375 -4.53125 C 1.0625 -6.039062 0.625 -7.738281 0.625 -9.625 C 0.625 -11.476562 1.070312 -13.148438 1.96875 -14.640625 C 2.863281 -16.140625 4.085938 -17.316406 5.640625 -18.171875 C 7.203125 -19.023438 8.945312 -19.453125 10.875 -19.453125 C 12.300781 -19.453125 13.703125 -19.15625 15.078125 -18.5625 C 16.460938 -17.976562 17.640625 -17.175781 18.609375 -16.15625 Z M 15.71875 -12.65625 "/></g></g></g></svg>