<svg xmlns="http://www.w3.org/2000/svg" xmlns:xlink="http://www.w3.org/1999/xlink" width="500" zoomAndPan="magnify" viewBox="0 0 375 374.999991" height="500" preserveAspectRatio="xMidYMid meet" version="1.0"><defs><clipPath id="f7226bd6cb"><path d="M 16.171875 239 L 166 239 L 166 374 L 16.171875 374 Z M 16.171875 239 " clip-rule="nonzero"/></clipPath><clipPath id="2d59ac2b4f"><path d="M 48 0 L 358.921875 0 L 358.921875 360 L 48 360 Z M 48 0 " clip-rule="nonzero"/></clipPath></defs><g clip-path="url(#f7226bd6cb)"><path fill="#1a1a1a" d="M 24.828125 279.261719 C 24.082031 279.414062 40.871094 291.421875 74.527344 315.519531 C 80.574219 320.371094 85.199219 326.710938 88.109375 333.875 C 89.230469 337.828125 89.15625 341.929688 87.886719 345.808594 L 91.992188 353.644531 C 92.066406 353.644531 93.109375 353.195312 95.050781 352.375 C 101.765625 366.699219 117.0625 374.90625 132.734375 372.742188 L 122.511719 350.359375 L 129.152344 340.289062 L 147.0625 340.886719 L 157.511719 358.867188 C 158.109375 359.386719 159.003906 359.6875 159.972656 359.761719 C 169.226562 342.304688 166.316406 326.113281 151.167969 311.269531 C 147.660156 307.761719 140.121094 304.480469 130.421875 305.152344 C 117.960938 305.746094 108.183594 305.746094 96.542969 298.136719 L 82.066406 286.722656 C 82.511719 285.605469 83.632812 284.933594 84.75 284.933594 C 86.246094 285.007812 87.660156 284.113281 88.109375 282.695312 C 88.183594 280.828125 89.230469 279.039062 90.871094 278.144531 L 129.300781 291.796875 L 135.496094 297.242188 L 158.703125 302.761719 L 165.121094 293.140625 L 143.257812 282.84375 L 135.496094 283.441406 L 94.304688 269.789062 C 93.558594 268.074219 93.632812 266.132812 94.453125 264.492188 C 94.902344 263 94.527344 261.359375 93.40625 260.3125 C 91.394531 259.792969 89.828125 258.375 89.078125 256.507812 L 79.527344 253.449219 C 78.484375 254.644531 76.992188 255.390625 75.421875 255.6875 C 73.484375 252.703125 70.796875 250.242188 67.738281 248.453125 L 35.574219 239.351562 C 30.722656 239.351562 26.84375 242.183594 24.007812 245.765625 C 21.171875 249.347656 19.828125 253.972656 20.351562 258.523438 C 17.367188 261.65625 16.171875 266.058594 17.214844 270.308594 C 18.261719 274.414062 21.394531 277.769531 24.828125 279.261719 Z M 93.855469 324.324219 L 100.570312 333.5 L 117.4375 324.546875 L 100.050781 335.664062 Z M 26.542969 273.59375 C 50.425781 292.691406 70.125 306.566406 85.574219 315.148438 C 85.574219 315.222656 65.871094 301.347656 26.542969 273.59375 Z M 33.410156 260.089844 C 36.542969 260.386719 39.304688 261.953125 41.097656 264.34375 C 40.648438 260.6875 37.589844 257.925781 33.785156 257.554688 C 29.976562 257.179688 26.246094 259.34375 24.828125 262.777344 C 27.140625 260.761719 30.277344 259.792969 33.410156 260.089844 Z M 94.003906 303.582031 C 93.484375 304.328125 80.050781 294.855469 53.707031 275.085938 C 50.648438 272.699219 48.855469 271.953125 45.722656 274.710938 C 47.886719 270.308594 51.097656 269.863281 55.273438 273.21875 Z M 74.675781 278.367188 C 72.363281 274.339844 72.289062 269.265625 74.527344 265.164062 C 76.765625 260.984375 80.945312 258.300781 85.648438 258 C 77.960938 261.804688 73.558594 270.011719 74.675781 278.367188 Z M 81.167969 270.832031 C 81.394531 269.191406 82.738281 267.996094 84.378906 267.921875 L 133.332031 285.378906 L 143.183594 284.484375 L 162.285156 293.363281 L 157.957031 299.929688 L 136.316406 295.453125 L 131.242188 290.601562 L 140.644531 291.648438 Z M 56.765625 264.640625 C 52.140625 261.65625 47.515625 258.597656 42.886719 255.613281 C 38.261719 252.628906 32.367188 249.792969 25.5 252.03125 C 26.320312 247.183594 30.125 243.378906 34.902344 242.410156 L 62.589844 250.242188 C 57.289062 252.628906 52.886719 259.941406 56.765625 264.640625 Z M 92.140625 346.480469 C 101.09375 340.738281 110.796875 336.335938 121.019531 333.351562 Z M 96.394531 346.628906 C 103.40625 355.808594 114.226562 361.253906 125.796875 361.402344 C 113.78125 363.566406 101.839844 357.523438 96.394531 346.628906 Z M 125.644531 329.84375 L 144.972656 327.832031 L 155.046875 344.691406 C 158.703125 337.230469 159.078125 328.578125 156.09375 320.816406 C 160.792969 329.472656 160.867188 339.914062 156.167969 348.644531 L 158.183594 354.761719 L 144.003906 329.621094 Z M 67.214844 261.582031 L 57.589844 259.492188 C 58.632812 255.835938 61.394531 252.929688 65.050781 251.734375 C 67.289062 252.929688 69.082031 254.867188 70.125 257.253906 Z M 110.347656 325.21875 L 105.496094 316.714844 C 107.734375 319.101562 109.378906 322.011719 110.347656 325.21875 Z M 102.214844 330.144531 L 97.289062 321.636719 C 99.601562 324.101562 101.316406 326.933594 102.214844 330.144531 Z M 104.898438 328.5 L 100.050781 319.996094 C 102.289062 322.382812 104.003906 325.292969 104.898438 328.5 Z M 107.585938 326.859375 L 102.660156 318.355469 C 104.976562 320.742188 106.691406 323.652344 107.585938 326.859375 Z M 113.035156 323.578125 L 108.109375 315.074219 C 110.421875 317.460938 112.140625 320.371094 113.035156 323.578125 Z M 113.035156 323.578125 " fill-opacity="1" fill-rule="evenodd"/></g><path fill="#1a1a1a" d="M 175.269531 195.707031 L 175.269531 257.925781 C 175.269531 260.015625 173.554688 261.730469 171.464844 261.730469 L 160.195312 261.730469 C 158.109375 261.730469 156.390625 260.015625 156.390625 257.925781 L 156.390625 161.3125 C 156.390625 159.226562 158.109375 157.507812 160.195312 157.507812 L 237.058594 157.507812 C 239.148438 157.507812 240.867188 159.226562 240.867188 161.3125 L 240.867188 188.171875 C 240.867188 190.261719 239.148438 191.976562 237.058594 191.976562 L 179.003906 191.976562 C 176.988281 191.902344 175.269531 193.617188 175.269531 195.707031 Z M 129.003906 105.660156 C 127.882812 106.332031 127.289062 107.523438 127.289062 108.792969 L 127.289062 258.96875 C 127.289062 260.835938 125.945312 262.402344 124.078125 262.699219 L 102.734375 266.058594 C 101.394531 266.28125 100.273438 267.25 99.75 268.445312 C 99.75 268.519531 99.824219 268.59375 99.824219 268.667969 L 117.140625 275.085938 L 169.601562 275.085938 L 128.40625 279.261719 L 136.09375 282.546875 L 143.332031 282.546875 L 164.898438 293.289062 L 158.628906 302.390625 L 135.421875 296.871094 L 129.226562 291.421875 L 105.347656 282.917969 C 105.125 283.292969 104.976562 283.664062 104.824219 284.113281 L 101.242188 297.09375 C 110.945312 301.941406 119.898438 303.136719 130.570312 302.6875 C 149.898438 301.347656 160.570312 315.746094 164.449219 332.976562 L 183.628906 332.976562 C 185.71875 332.976562 187.433594 331.261719 187.433594 329.171875 L 187.433594 281.203125 C 187.433594 279.488281 188.628906 277.996094 190.269531 277.546875 L 199.746094 275.085938 C 202.136719 274.488281 204.523438 276.277344 204.523438 278.742188 L 204.523438 321.339844 C 204.523438 323.429688 206.242188 325.144531 208.328125 325.144531 L 274.148438 325.144531 C 274.523438 325.144531 274.820312 325.070312 275.117188 324.996094 L 302.503906 317.683594 C 304.148438 317.238281 305.339844 315.746094 305.339844 314.027344 L 305.339844 201.152344 C 305.339844 199.4375 304.148438 197.871094 302.429688 197.496094 L 279.820312 192.347656 C 279.519531 192.273438 279.296875 192.273438 279 192.273438 L 250.492188 192.273438 C 248.402344 192.273438 246.6875 190.558594 246.6875 188.46875 L 246.6875 93.425781 C 246.6875 91.335938 244.96875 89.621094 242.878906 89.621094 L 155.121094 89.621094 C 154.375 89.621094 153.703125 89.84375 153.109375 90.214844 C 143.855469 96.109375 138.109375 99.765625 129.003906 105.660156 Z M 94.078125 278.964844 L 94.078125 292.542969 L 96.542969 294.480469 C 98.109375 295.527344 99.675781 296.421875 101.242188 297.167969 L 101.242188 281.5 Z M 94.078125 303.285156 Z M 156.464844 148.035156 L 156.464844 100.4375 C 156.464844 98.347656 158.183594 96.632812 160.273438 96.632812 C 185.792969 96.78125 211.464844 96.410156 237.136719 96.558594 C 239.222656 96.558594 240.941406 98.273438 240.941406 100.363281 L 240.941406 148.035156 C 240.941406 150.125 239.222656 151.839844 237.136719 151.839844 L 160.273438 151.839844 C 158.109375 151.839844 156.464844 150.125 156.464844 148.035156 Z M 163.628906 308.285156 C 166.316406 306.566406 170.046875 306.792969 172.511719 309.03125 C 174.972656 311.269531 175.71875 315 174.003906 317.90625 C 176.464844 314.921875 176.242188 310.746094 173.257812 307.984375 C 170.570312 305.523438 166.09375 305.523438 163.628906 308.285156 Z M 169.300781 310.746094 L 164.601562 315.667969 C 164.375 315.894531 164.375 316.640625 164.824219 316.9375 C 165.046875 317.160156 165.570312 317.160156 166.09375 316.9375 L 170.792969 312.015625 C 171.015625 311.789062 171.015625 311.042969 170.792969 310.746094 C 170.347656 310.222656 169.824219 310.449219 169.300781 310.746094 Z M 163.628906 289.929688 C 166.316406 287.917969 170.046875 288.214844 172.511719 290.453125 C 174.972656 292.691406 175.71875 296.421875 174.003906 299.332031 C 176.464844 296.347656 176.242188 292.167969 173.257812 289.410156 C 170.570312 286.945312 166.09375 287.246094 163.628906 289.929688 Z M 169.300781 292.167969 L 164.601562 297.09375 C 164.375 297.316406 164.375 298.0625 164.824219 298.285156 C 165.046875 298.808594 165.570312 298.808594 166.09375 298.285156 L 170.792969 293.363281 C 171.015625 293.140625 171.015625 292.394531 170.792969 292.167969 C 170.347656 291.945312 169.824219 291.945312 169.300781 292.167969 Z M 284.148438 199.734375 L 297.355469 202.867188 C 299.074219 203.316406 300.265625 204.808594 300.265625 206.523438 L 300.265625 309.03125 C 300.265625 310.746094 299.074219 312.238281 297.429688 312.683594 L 284.222656 316.191406 C 281.835938 316.789062 279.445312 315 279.445312 312.535156 L 279.445312 203.390625 C 279.519531 200.929688 281.761719 199.136719 284.148438 199.734375 Z M 215.644531 271.132812 C 200.792969 257.253906 208.703125 232.039062 229.523438 229.503906 C 217.882812 233.230469 210.195312 245.617188 213.402344 258 C 216.910156 270.386719 229.226562 278.070312 241.910156 275.53125 C 232.957031 279.335938 222.582031 277.84375 215.644531 271.132812 Z M 247.058594 271.652344 C 254 264.265625 255.941406 253.597656 251.984375 244.199219 C 248.03125 234.800781 239.148438 228.605469 229 228.085938 C 221.089844 228.308594 214.898438 232.039062 209.972656 239.199219 C 205.792969 246.363281 204.746094 254.792969 207.210938 262.699219 C 202.285156 254.792969 201.761719 245.09375 205.71875 236.960938 C 211.164062 226.070312 223.03125 220.101562 234.972656 221.890625 C 247.058594 223.90625 256.539062 233.007812 258.253906 245.167969 L 255.566406 247.183594 C 257.730469 256.285156 254.523438 265.683594 247.058594 271.652344 Z M 256.460938 272.101562 C 263.625 262.402344 264.894531 249.570312 259.96875 238.902344 C 266.386719 249.570312 265.941406 263.148438 258.476562 273.292969 C 250.792969 283.441406 237.882812 288.140625 225.792969 285.15625 C 237.65625 286.722656 249.523438 281.800781 256.460938 272.101562 Z M 256.460938 272.101562 " fill-opacity="1" fill-rule="evenodd"/><g clip-path="url(#2d59ac2b4f)"><path fill="#1a1a1a" d="M 48.1875 218.609375 L 48.1875 90.367188 L 50.425781 89.023438 L 201.242188 1.4375 L 203.554688 0.09375 L 205.792969 1.4375 L 356.609375 89.023438 L 358.921875 90.367188 L 358.921875 359.910156 L 195.195312 359.910156 L 195.195312 350.882812 L 349.816406 350.882812 L 349.816406 95.511719 L 203.554688 10.539062 L 57.214844 95.511719 L 57.214844 218.609375 Z M 48.1875 218.609375 " fill-opacity="1" fill-rule="nonzero"/></g></svg>