<svg xmlns="http://www.w3.org/2000/svg" xmlns:xlink="http://www.w3.org/1999/xlink" width="200" zoomAndPan="magnify" viewBox="0 0 150 37.5" height="50" preserveAspectRatio="xMidYMid meet" version="1.0"><defs><clipPath id="eb2ae977bb"><path d="M 8.191406 6.300781 L 34.09375 6.300781 L 34.09375 30.726562 L 8.191406 30.726562 Z M 8.191406 6.300781 " clip-rule="nonzero"/></clipPath><clipPath id="bdb4aaf786"><path d="M 35.199219 6.300781 L 61.101562 6.300781 L 61.101562 30.726562 L 35.199219 30.726562 Z M 35.199219 6.300781 " clip-rule="nonzero"/></clipPath><clipPath id="9fa1b14509"><path d="M 62.207031 6.300781 L 88.113281 6.300781 L 88.113281 30.726562 L 62.207031 30.726562 Z M 62.207031 6.300781 " clip-rule="nonzero"/></clipPath></defs><g clip-path="url(#eb2ae977bb)"><path fill="#fecd4c" d="M 21.144531 6.332031 L 25.148438 14.351562 L 34.097656 15.636719 L 27.621094 21.875 L 29.152344 30.6875 L 21.144531 26.527344 L 13.136719 30.6875 L 14.667969 21.875 L 8.191406 15.636719 L 17.140625 14.351562 Z M 21.144531 6.332031 " fill-opacity="1" fill-rule="nonzero"/></g><g clip-path="url(#bdb4aaf786)"><path fill="#fecd4c" d="M 48.152344 6.332031 L 52.15625 14.351562 L 61.109375 15.636719 L 54.628906 21.875 L 56.160156 30.6875 L 48.152344 26.527344 L 40.148438 30.6875 L 41.675781 21.875 L 35.199219 15.636719 L 44.148438 14.351562 Z M 48.152344 6.332031 " fill-opacity="1" fill-rule="nonzero"/></g><g clip-path="url(#9fa1b14509)"><path fill="#fecd4c" d="M 75.160156 6.332031 L 79.164062 14.351562 L 88.117188 15.636719 L 81.640625 21.875 L 83.167969 30.6875 L 75.160156 26.527344 L 67.15625 30.6875 L 68.683594 21.875 L 62.207031 15.636719 L 71.160156 14.351562 Z M 75.160156 6.332031 " fill-opacity="1" fill-rule="nonzero"/></g></svg>